<svg width="24" height="25" viewBox="0 0 24 25" fill="none" xmlns="http://www.w3.org/2000/svg">
<g id="Ic&#195;&#180;ne" clip-path="url(#clip0_920_28372)">
<path id="Ic&#195;&#180;ne_2" fill-rule="evenodd" clip-rule="evenodd" d="M12 2.59961C17.523 2.59961 22 7.07661 22 12.5996C22 17.3466 18.692 21.3216 14.255 22.3446L12 24.5996L9.745 22.3446C5.308 21.3216 2 17.3466 2 12.5996C2 7.07661 6.477 2.59961 12 2.59961ZM12.16 16.5996C10.124 16.5996 8.29 17.4696 7.012 18.8566C7.9438 19.6018 9.03132 20.1278 10.194 20.3956L10.754 20.5246L12 21.7716L13.247 20.5246L13.807 20.3946C15.0456 20.1091 16.1978 19.5309 17.167 18.7086C15.8514 17.3582 14.0454 16.5974 12.16 16.5996ZM6.55424 6.74014C3.54919 9.53308 3.14392 14.1465 5.616 17.4206V17.4196C7.31472 15.6168 9.68298 14.5963 12.16 14.5996C14.5466 14.5965 16.8361 15.5444 18.522 17.2336C20.8982 13.8893 20.3594 9.28951 17.2747 6.58481C14.19 3.88011 9.55929 3.9472 6.55424 6.74014ZM12 5.59961C14.2091 5.59961 16 7.39047 16 9.59961C16 11.8087 14.2091 13.5996 12 13.5996C9.79086 13.5996 8 11.8087 8 9.59961C8 7.39047 9.79086 5.59961 12 5.59961ZM12 7.59961C10.8954 7.59961 10 8.49504 10 9.59961C10 10.7042 10.8954 11.5996 12 11.5996C13.1046 11.5996 14 10.7042 14 9.59961C14 8.49504 13.1046 7.59961 12 7.59961Z" fill="#666666"/>
</g>
<defs>
<clipPath id="clip0_920_28372">
<rect width="24" height="24" fill="white" transform="translate(0 0.599609)"/>
</clipPath>
</defs>
</svg>
