<svg width="24" height="25" viewBox="0 0 24 25" fill="none" xmlns="http://www.w3.org/2000/svg">
<g id="Ic&#195;&#180;ne">
<path id="Ic&#195;&#180;ne_2" fill-rule="evenodd" clip-rule="evenodd" d="M12.0006 6.59961C16.4189 6.59961 20.0006 10.1813 20.0006 14.5996V20.5996H21.0006V22.5996H3.00059V20.5996H4.00059V14.5996C4.00059 10.1813 7.58231 6.59961 12.0006 6.59961ZM12.0006 8.59961C8.68688 8.59961 6.00059 11.2859 6.00059 14.5996V20.5996H18.0006V14.5996C18.0006 11.2859 15.3143 8.59961 12.0006 8.59961ZM12.0006 9.59961V11.5996C10.3437 11.5996 9.00059 12.9428 9.00059 14.5996H7.00059C7.00059 11.8382 9.23917 9.59961 12.0006 9.59961ZM4.22259 5.40761L6.34359 7.52761L4.93059 8.94361L2.80859 6.82161L4.22259 5.40761ZM19.7786 5.40761L21.1926 6.82161L19.0726 8.94261L17.6576 7.52861L19.7786 5.40761ZM13.0006 2.59961V5.59961H11.0006V2.59961H13.0006Z" fill="#666666"/>
</g>
</svg>
