<svg width="24" height="24" viewBox="0 0 24 24" fill="none" xmlns="http://www.w3.org/2000/svg">
<g id="Ic&#195;&#180;ne">
<path id="Ic&#195;&#180;ne_2" fill-rule="evenodd" clip-rule="evenodd" d="M9 0.999512V2.99951H15V0.999512H17V2.99951H21C21.5523 2.99951 22 3.44723 22 3.99951V19.9995C22 20.5518 21.5523 20.9995 21 20.9995H3C2.44772 20.9995 2 20.5518 2 19.9995V3.99951C2 3.44723 2.44772 2.99951 3 2.99951H7V0.999512H9ZM20 10.9995H4V18.9995H20V10.9995ZM11 12.9995V16.9995H6V12.9995H11ZM7 4.99951H4V8.99951H20V4.99951H17V6.99951H15V4.99951H9V6.99951H7V4.99951Z" fill="#666666"/>
</g>
</svg>
