<svg width="20" height="20" viewBox="0 0 20 20" fill="none" xmlns="http://www.w3.org/2000/svg">
<path d="M7 -0.000488281V1.99951H13V-0.000488281H15V1.99951H19C19.5523 1.99951 20 2.44723 20 2.99951V18.9995C20 19.5518 19.5523 19.9995 19 19.9995H1C0.44772 19.9995 0 19.5518 0 18.9995V2.99951C0 2.44723 0.44772 1.99951 1 1.99951H5V-0.000488281H7ZM18 8.99951H2V17.9995H18V8.99951ZM13.0355 10.1355L14.4497 11.5498L9.5 16.4995L5.96447 12.964L7.37868 11.5498L9.5 13.6711L13.0355 10.1355ZM5 3.99951H2V6.99951H18V3.99951H15V4.99951H13V3.99951H7V4.99951H5V3.99951Z" fill="#666666"/>
</svg>
