<svg width="24" height="24" viewBox="0 0 24 24" fill="none" xmlns="http://www.w3.org/2000/svg">
<g id="Ic&#195;&#180;ne">
<path id="Ic&#195;&#180;ne_2" fill-rule="evenodd" clip-rule="evenodd" d="M21 2.99951C21.5523 2.99951 22 3.44723 22 3.99951V19.9995C22 20.5518 21.5523 20.9995 21 20.9995H3C2.44772 20.9995 2 20.5518 2 19.9995V12.4865C2 12.1974 2.12505 11.9224 2.343 11.7325L6 8.54351V3.99951C6 3.44723 6.44772 2.99951 7 2.99951H21ZM20 4.99951H8V7.12651C8.234 7.12651 8.469 7.20851 8.657 7.37351L13.657 11.7325C13.8749 11.9224 14 12.1974 14 12.4865V18.9995H20V4.99951ZM8 9.45351L4 12.9415V18.9995H7V14.9995H9V18.9995H12V12.9415L8 9.45351ZM18 14.9995V16.9995H16V14.9995H18ZM18 10.9995V12.9995H16V10.9995H18ZM18 6.99951V8.99951H16V6.99951H18ZM14 6.99951V8.99951H12V6.99951H14Z" fill="#666666"/>
</g>
</svg>
