<svg width="24" height="25" viewBox="0 0 24 25" fill="none" xmlns="http://www.w3.org/2000/svg">
<g id="Ic&#195;&#180;ne">
<path id="Ic&#195;&#180;ne_2" fill-rule="evenodd" clip-rule="evenodd" d="M21.008 3.59961C21.556 3.59961 22 4.04461 22 4.59261V20.6066C21.9962 21.1531 21.5544 21.5953 21.008 21.5996H2.992C2.44397 21.5991 2 21.1546 2 20.6066V4.59261C2.00381 4.04616 2.44556 3.60397 2.992 3.59961H21.008ZM16 5.59961H8V19.5996H16V5.59961ZM6 17.5996H4V19.5996H6V17.5996ZM20 17.5996H18V19.5996H20V17.5996ZM6 13.5996H4V15.5996H6V13.5996ZM20 13.5996H18V15.5996H20V13.5996ZM6 9.59961H4V11.5996H6V9.59961ZM20 9.59961H18V11.5996H20V9.59961ZM6 5.59961H4V7.59961H6V5.59961ZM20 5.59961H18V7.59961H20V5.59961Z" fill="#666666"/>
</g>
</svg>
