<svg width="24" height="24" viewBox="0 0 24 24" fill="none" xmlns="http://www.w3.org/2000/svg">
<g id="Ic&#195;&#180;ne">
<g id="Ic&#195;&#180;ne_2">
<path d="M10 2.99951H14C16.1217 2.99951 18.1566 3.84237 19.6569 5.34266C21.1571 6.84295 22 8.87778 22 10.9995C22 13.1212 21.1571 15.1561 19.6569 16.6564C18.1566 18.1567 16.1217 18.9995 14 18.9995V22.4995C9 20.4995 2 17.4995 2 10.9995C2 8.87778 2.84285 6.84295 4.34315 5.34266C5.84344 3.84237 7.87827 2.99951 10 2.99951ZM12 16.9995H14C14.7879 16.9995 15.5681 16.8443 16.2961 16.5428C17.0241 16.2413 17.6855 15.7993 18.2426 15.2422C18.7998 14.685 19.2417 14.0236 19.5433 13.2956C19.8448 12.5677 20 11.7874 20 10.9995C20 10.2116 19.8448 9.43136 19.5433 8.70341C19.2417 7.97546 18.7998 7.31402 18.2426 6.75687C17.6855 6.19972 17.0241 5.75776 16.2961 5.45623C15.5681 5.15471 14.7879 4.99951 14 4.99951H10C8.4087 4.99951 6.88258 5.63165 5.75736 6.75687C4.63214 7.88209 4 9.40821 4 10.9995C4 14.6095 6.462 16.9655 12 19.4795V16.9995Z" fill="#666666"/>
<path d="M11.7 14.4995L9.55227 10.9995L11.7 7.49951H9.38182L7.2 10.9995L9.38182 14.4995H11.7ZM16.2 14.4995L14.0523 10.9995L16.2 7.49951H13.8818L11.7 10.9995L13.8818 14.4995H16.2Z" fill="#666666"/>
</g>
</g>
</svg>
