<svg width="24" height="25" viewBox="0 0 24 25" fill="none" xmlns="http://www.w3.org/2000/svg">
<g id="Ic&#195;&#180;ne">
<path id="Ic&#195;&#180;ne_2" fill-rule="evenodd" clip-rule="evenodd" d="M10 14.5996C14.4183 14.5996 18 18.1813 18 22.5996H16C16 19.2859 13.3137 16.5996 10 16.5996C6.68629 16.5996 4 19.2859 4 22.5996H2C2 18.1813 5.58172 14.5996 10 14.5996ZM18.284 15.3026C21.1546 16.5954 23.0003 19.4513 23 22.5996H21C21.0005 20.2383 19.6161 18.0962 17.463 17.1266L18.283 15.3026H18.284ZM17.596 4.01261C19.6566 4.86196 21.0008 6.87087 21 9.09961C21.0009 11.9439 18.8326 14.3195 16 14.5776V12.5646C17.521 12.3468 18.7221 11.1624 18.9612 9.64454C19.2002 8.12672 18.4214 6.63046 17.041 5.95561L17.596 4.01261ZM10 1.59961C13.315 1.59961 16 4.28461 16 7.59961C16 10.9146 13.315 13.5996 10 13.5996C6.685 13.5996 4 10.9146 4 7.59961C4 4.28461 6.685 1.59961 10 1.59961ZM10 3.59961C7.79 3.59961 6 5.38961 6 7.59961C6 9.80961 7.79 11.5996 10 11.5996C12.21 11.5996 14 9.80961 14 7.59961C14 5.38961 12.21 3.59961 10 3.59961Z" fill="#666666"/>
</g>
</svg>
