<svg width="77" height="65" viewBox="0 0 77 65" fill="none" xmlns="http://www.w3.org/2000/svg">
<path d="M7 8.49756C6.31075 8.49756 5.75 7.93681 5.75 7.24756C5.75 6.55825 6.31075 5.99756 7 5.99756C7.68925 5.99756 8.25 6.55825 8.25 7.24756C8.25 7.93681 7.68925 8.49756 7 8.49756Z" fill="#ADADF9"/>
<path d="M12 8.49756C11.3108 8.49756 10.75 7.93681 10.75 7.24756C10.75 6.55825 11.3108 5.99756 12 5.99756C12.6892 5.99756 13.25 6.55825 13.25 7.24756C13.25 7.93681 12.6892 8.49756 12 8.49756Z" fill="#ADADF9"/>
<path d="M15.75 7.24756C15.75 7.93681 16.3108 8.49756 17 8.49756C17.6892 8.49756 18.25 7.93681 18.25 7.24756C18.25 6.55825 17.6892 5.99756 17 5.99756C16.3108 5.99756 15.75 6.55825 15.75 7.24756Z" fill="#ADADF9"/>
<path d="M64.5 5.99756C65.1904 5.99756 65.75 6.5572 65.75 7.24756C65.75 7.8886 65.2674 8.41694 64.6458 8.48915L64.5 8.49756H27C26.3096 8.49756 25.75 7.93791 25.75 7.24756C25.75 6.60651 26.2325 6.07817 26.8542 6.00597L27 5.99756H64.5Z" fill="#ADADF9"/>
<path d="M70.7416 2.10178C70.6694 1.48011 70.141 0.997559 69.5 0.997559H2L1.85422 1.00597C1.23255 1.07817 0.75 1.60651 0.75 2.24756V59.7476L0.75841 59.8933C0.830616 60.515 1.35896 60.9976 2 60.9976H32L32.1458 60.9891C32.7674 60.9169 33.25 60.3886 33.25 59.7476L33.2416 59.6018C33.1694 58.9801 32.641 58.4976 32 58.4976H3.25V13.4976H49.5L49.6458 13.4891C50.2674 13.4169 50.75 12.8886 50.75 12.2476C50.75 11.5572 50.1904 10.9976 49.5 10.9976H3.25V3.49756H68.25V22.2476L68.2584 22.3933C68.3306 23.015 68.859 23.4976 69.5 23.4976C70.1904 23.4976 70.75 22.9379 70.75 22.2476V2.24756L70.7416 2.10178Z" fill="white"/>
<path d="M34.5 20.9976C35.1904 20.9976 35.75 21.5572 35.75 22.2476C35.75 22.8886 35.2674 23.4169 34.6458 23.4891L34.5 23.4976H12C11.3096 23.4976 10.75 22.9379 10.75 22.2476C10.75 21.6065 11.2325 21.0782 11.8542 21.006L12 20.9976H34.5Z" fill="white"/>
<path d="M30.75 29.7476C30.75 29.0572 30.1904 28.4976 29.5 28.4976H12L11.8542 28.506C11.2325 28.5782 10.75 29.1065 10.75 29.7476C10.75 30.4379 11.3096 30.9976 12 30.9976H29.5L29.6458 30.9891C30.2675 30.9169 30.75 30.3886 30.75 29.7476Z" fill="white"/>
<path d="M27 35.9976C27.6904 35.9976 28.25 36.5572 28.25 37.2476C28.25 37.8886 27.7675 38.4169 27.1458 38.4892L27 38.4976H12C11.3096 38.4976 10.75 37.9379 10.75 37.2476C10.75 36.6065 11.2325 36.0782 11.8542 36.006L12 35.9976H27Z" fill="white"/>
<path d="M57 24.7476C57.789 24.7476 58.4286 25.3872 58.4286 26.1761C58.4286 26.9651 57.789 27.6047 57 27.6047C47.5323 27.6047 39.8571 35.2798 39.8571 44.7476C39.8571 54.2153 47.5323 61.8904 57 61.8904C66.4677 61.8904 74.1429 54.2153 74.1429 44.7476C74.1429 41.8572 73.4279 39.0734 72.0816 36.59C71.7055 35.8964 71.963 35.0293 72.6566 34.6532C73.3502 34.2772 74.2173 34.5347 74.5933 35.2283C76.165 38.1272 77 41.3786 77 44.7476C77 55.7933 68.0457 64.7476 57 64.7476C45.9543 64.7476 37 55.7933 37 44.7476C37 33.7019 45.9543 24.7476 57 24.7476Z" fill="#ADADF9"/>
<path fill-rule="evenodd" clip-rule="evenodd" d="M46.881 45.7344L47.0028 45.6384L62.1446 34.8855C63.18 34.1503 64.5882 35.0303 64.3812 36.2831L61.3544 54.6062C61.1481 55.8551 59.5396 56.2385 58.7921 55.2171L54.5862 49.4701L47.577 48.2091C46.3831 47.9943 46.0023 46.5033 46.881 45.7344ZM59.0895 50.7848L61.0035 39.2002L51.4304 45.9989L54.7015 46.5877L55.703 44.985C56.1211 44.3159 57.0025 44.1124 57.6715 44.5305C58.2928 44.9187 58.5127 45.7064 58.2061 46.3526L58.126 46.499L57.1249 48.1011L59.0895 50.7848Z" fill="#ADADF9"/>
</svg>
