<svg width="24" height="25" viewBox="0 0 24 25" fill="none" xmlns="http://www.w3.org/2000/svg">
<g id="Ic&#195;&#180;ne">
<path id="Ic&#195;&#180;ne_2" fill-rule="evenodd" clip-rule="evenodd" d="M16 4.59961C16.5523 4.59961 17 5.04732 17 5.59961V9.79961L22.213 6.14961C22.3658 6.0425 22.5655 6.02939 22.731 6.1156C22.8965 6.20182 23 6.37301 23 6.55961V18.6396C23 18.8262 22.8965 18.9974 22.731 19.0836C22.5655 19.1698 22.3658 19.1567 22.213 19.0496L17 15.3996V19.5996C17 20.1519 16.5523 20.5996 16 20.5996H2C1.44772 20.5996 1 20.1519 1 19.5996V5.59961C1 5.04732 1.44772 4.59961 2 4.59961H16ZM15 6.59961H3V18.5996H15V6.59961ZM7.4 9.42861C7.47611 9.4284 7.55069 9.44991 7.615 9.49061L11.97 12.2626C12.085 12.3361 12.1545 12.4632 12.1545 12.5996C12.1545 12.7361 12.085 12.8631 11.97 12.9366L7.615 15.7096C7.49144 15.7884 7.3347 15.7933 7.20646 15.7224C7.07822 15.6515 6.99901 15.5161 6.99999 15.3696V9.82961C6.99999 9.60861 7.18 9.42961 7.4 9.42961V9.42861ZM21 9.43961L17 12.2396V12.9576L21 15.7576V9.43961Z" fill="#666666"/>
</g>
</svg>
