<svg width="24" height="24" viewBox="0 0 24 24" fill="none" xmlns="http://www.w3.org/2000/svg">
<g id="Ic&#195;&#180;ne" clip-path="url(#clip0_920_28196)">
<path id="Ic&#195;&#180;ne_2" d="M12 23.7274L5.636 17.3634C4.37734 16.1048 3.52019 14.5011 3.17293 12.7553C2.82567 11.0095 3.00391 9.19986 3.6851 7.55534C4.36629 5.91081 5.51984 4.50521 6.99988 3.51628C8.47992 2.52735 10.22 1.99951 12 1.99951C13.78 1.99951 15.5201 2.52735 17.0001 3.51628C18.4802 4.50521 19.6337 5.91081 20.3149 7.55534C20.9961 9.19986 21.1743 11.0095 20.8271 12.7553C20.4798 14.5011 19.6227 16.1048 18.364 17.3634L12 23.7274ZM16.95 15.9494C17.9289 14.9704 18.5955 13.7232 18.8656 12.3653C19.1356 11.0075 18.9969 9.60003 18.4671 8.32099C17.9373 7.04195 17.04 5.94874 15.8889 5.1796C14.7378 4.41046 13.3844 3.99994 12 3.99994C10.6156 3.99994 9.26222 4.41046 8.11109 5.1796C6.95996 5.94874 6.06275 7.04195 5.53292 8.32099C5.00308 9.60003 4.86442 11.0075 5.13445 12.3653C5.40449 13.7232 6.07111 14.9704 7.05 15.9494L12 20.8994L16.95 15.9494ZM12 12.9994C11.4696 12.9994 10.9609 12.7887 10.5858 12.4136C10.2107 12.0386 10 11.5299 10 10.9994C10 10.469 10.2107 9.96029 10.5858 9.58522C10.9609 9.21015 11.4696 8.99943 12 8.99943C12.5304 8.99943 13.0391 9.21015 13.4142 9.58522C13.7893 9.96029 14 10.469 14 10.9994C14 11.5299 13.7893 12.0386 13.4142 12.4136C13.0391 12.7887 12.5304 12.9994 12 12.9994Z" fill="#666666"/>
</g>
<defs>
<clipPath id="clip0_920_28196">
<rect width="24" height="24" fill="white" transform="translate(0 -0.000488281)"/>
</clipPath>
</defs>
</svg>
