<svg width="24" height="25" viewBox="0 0 24 25" fill="none" xmlns="http://www.w3.org/2000/svg">
<path d="M10.9032 2.2998L20.8027 3.71401L22.2169 13.6135L13.0245 22.8059C12.634 23.1964 12.0009 23.1964 11.6103 22.8059L1.71087 12.9064C1.32034 12.5159 1.32034 11.8827 1.71087 11.4922L10.9032 2.2998ZM11.6103 4.42112L3.83219 12.1993L12.3174 20.6846L20.0956 12.9064L19.035 5.48178L11.6103 4.42112ZM13.7317 10.7851C12.9506 10.004 12.9506 8.7377 13.7317 7.95665C14.5127 7.1756 15.779 7.1756 16.5601 7.95665C17.3411 8.7377 17.3411 10.004 16.5601 10.7851C15.779 11.5661 14.5127 11.5661 13.7317 10.7851Z" fill="#666666"/>
</svg>
