<svg width="24" height="24" viewBox="0 0 24 24" fill="none" xmlns="http://www.w3.org/2000/svg">
<g id="Ic&#195;&#180;ne">
<path id="Ic&#195;&#180;ne_2" fill-rule="evenodd" clip-rule="evenodd" d="M11 1.99951C15.068 1.99951 18.426 5.03551 18.934 8.96451L21.184 12.5035C21.332 12.7365 21.302 13.0835 20.959 13.2315L19 14.0695V16.9995C19 18.1045 18.105 18.9995 17 18.9995H15.001L15 21.9995H6V18.3055C6 17.1255 5.564 16.0085 4.756 15.0005C3.657 13.6305 3 11.8915 3 9.99951C3 5.58151 6.582 1.99951 11 1.99951ZM11 3.99951C7.686 3.99951 5 6.68551 5 9.99951C5 11.3845 5.468 12.6925 6.316 13.7495C7.41 15.1135 8 16.6665 8 18.3055V19.9995H13L13.002 16.9995H17V12.7515L18.55 12.0875L17.007 9.66251L16.95 9.22051C16.566 6.25051 14.024 3.99951 11 3.99951ZM11 6.99951C11.552 6.99951 12 7.44751 12 7.99951V8.99951H13C13.552 8.99951 14 9.44751 14 9.99951C14 10.5515 13.552 10.9995 13 10.9995H12V11.9995C12 12.5515 11.552 12.9995 11 12.9995C10.448 12.9995 10 12.5515 10 11.9995V10.9985L9 10.9995C8.448 10.9995 8 10.5515 8 9.99951C8 9.44751 8.448 8.99951 9 8.99951L10 8.99851V7.99951C10 7.44751 10.448 6.99951 11 6.99951Z" fill="#666666"/>
</g>
</svg>
