<svg width="24" height="25" viewBox="0 0 24 25" fill="none" xmlns="http://www.w3.org/2000/svg">
<g id="Ic&#195;&#180;ne">
<path id="Ic&#195;&#180;ne_2" fill-rule="evenodd" clip-rule="evenodd" d="M18.031 17.2166L22.314 21.4986L20.899 22.9136L16.617 18.6306C15.0237 19.9078 13.042 20.6025 11 20.5996C6.032 20.5996 2 16.5676 2 11.5996C2 6.63161 6.032 2.59961 11 2.59961C15.968 2.59961 20 6.63161 20 11.5996C20.0029 13.6416 19.3082 15.6233 18.031 17.2166ZM16.025 16.4746C17.2941 15.1695 18.0029 13.42 18 11.5996C18 7.73161 14.867 4.59961 11 4.59961C7.132 4.59961 4 7.73161 4 11.5996C4 15.4666 7.132 18.5996 11 18.5996C12.8204 18.6025 14.5699 17.8937 15.875 16.6246L16.025 16.4746Z" fill="#666666"/>
</g>
</svg>
