<svg width="160" height="160" viewBox="0 0 160 160" fill="none" xmlns="http://www.w3.org/2000/svg">
<path fill-rule="evenodd" clip-rule="evenodd" d="M150 124C148.897 124 148 123.102 148 122C148 120.897 148.897 120 150 120C151.103 120 152 120.897 152 122C152 123.102 151.103 124 150 124Z" fill="#ECECFE"/>
<path fill-rule="evenodd" clip-rule="evenodd" d="M110 7.99951C108.897 7.99951 108 7.10231 108 5.99951C108 4.89662 108.897 3.99951 110 3.99951C111.103 3.99951 112 4.89662 112 5.99951C112 7.10231 111.103 7.99951 110 7.99951Z" fill="#ECECFE"/>
<path fill-rule="evenodd" clip-rule="evenodd" d="M6 108C4.8972 108 4 107.102 4 106C4 104.897 4.8972 104 6 104C7.1028 104 8 104.897 8 106C8 107.102 7.1028 108 6 108Z" fill="#ECECFE"/>
<path fill-rule="evenodd" clip-rule="evenodd" d="M100 106C103.771 106 106 108.228 106 112C106 112.163 105.98 112.326 105.94 112.485C104.93 116.527 100.436 119.155 92.4165 120.604L91.121 120.823C90.6794 120.892 90.2281 120.959 89.7669 121.022L88.3541 121.203C88.1138 121.231 87.871 121.259 87.6257 121.286L86.1249 121.438L84.5653 121.571L82.9469 121.686L81.2697 121.783C80.9853 121.797 80.6984 121.811 80.4091 121.824L78.6435 121.894L76.8191 121.946L74.9357 121.98L72 122C70.8954 122 70 121.104 70 120C70 118.895 70.8954 118 72 118L73.9 117.991C74.2115 117.988 74.5205 117.984 74.827 117.98L76.6348 117.946L78.3812 117.895L80.066 117.827L81.6893 117.744L83.251 117.644L84.7509 117.528L86.1892 117.397C86.4238 117.374 86.6558 117.351 86.8852 117.326L88.2309 117.172C88.8882 117.092 89.5224 117.006 90.1334 116.914L91.3244 116.724L92.4535 116.519L93.5206 116.3C98.3557 115.248 101.165 113.747 101.928 111.913L101.994 111.73L101.981 111.494C101.888 110.417 101.444 110.049 100.264 110.004L100 110C97.9224 110 95.7344 111.093 93.4142 113.414C92.2091 114.619 90.1856 113.855 90.012 112.227L90 112C90 110.437 89.5621 110 88 110C85.9224 110 83.7344 111.093 81.4142 113.414C80.6332 114.195 79.3668 114.195 78.5858 113.414C77.8047 112.633 77.8047 111.366 78.5858 110.585C81.5989 107.572 84.7443 106 88 106C90.2897 106 92.0108 106.821 93.0097 108.311L93.088 108.438L93.4792 108.166C95.4336 106.846 97.438 106.117 99.4869 106.013L100 106Z" fill="#E1000F"/>
<path d="M84 33.9995C85.1046 33.9995 86 34.8949 86 35.9995C86 37.0252 85.2279 37.8705 84.2332 37.9861L84 37.9995H52C50.8954 37.9995 50 37.1041 50 35.9995C50 34.9738 50.7721 34.1285 51.7668 34.013L52 33.9995H84Z" fill="#000091"/>
<path d="M106 47.9995C106 46.8949 105.105 45.9995 104 45.9995H52L51.7668 46.013C50.7721 46.1285 50 46.9738 50 47.9995C50 49.1041 50.8954 49.9995 52 49.9995H104L104.233 49.9861C105.228 49.8705 106 49.0252 106 47.9995Z" fill="#000091"/>
<path d="M92 57.9995C93.1046 57.9995 94 58.8949 94 59.9995C94 61.0252 93.2279 61.8705 92.2332 61.9861L92 61.9995H52C50.8954 61.9995 50 61.1041 50 59.9995C50 58.9738 50.7721 58.1285 51.7668 58.013L52 57.9995H92Z" fill="#000091"/>
<path d="M106 71.9995C106 70.8949 105.105 69.9995 104 69.9995H52L51.7668 70.013C50.7721 70.1285 50 70.9738 50 71.9995C50 73.1041 50.8954 73.9995 52 73.9995H104L104.233 73.9861C105.228 73.8705 106 73.0252 106 71.9995Z" fill="#000091"/>
<path d="M94 83.9995C94 82.8949 93.1046 81.9995 92 81.9995H52L51.7668 82.013C50.7721 82.1285 50 82.9738 50 83.9995C50 85.1041 50.8954 85.9995 52 85.9995H92L92.2332 85.9861C93.2279 85.8705 94 85.0252 94 83.9995Z" fill="#000091"/>
<path fill-rule="evenodd" clip-rule="evenodd" d="M40 21.9995H116C117.105 21.9995 118 22.8949 118 23.9995V132C118 133.104 117.105 134 116 134H40C38.8954 134 38 133.104 38 132V23.9995C38 22.8949 38.8954 21.9995 40 21.9995ZM114 130V25.9995H42V130H114Z" fill="#000091"/>
<path d="M124 37.9995C125.026 37.9995 125.871 38.7716 125.987 39.7663L126 39.9995V140C126 141.025 125.228 141.871 124.233 141.986L124 142H56C54.8954 142 54 141.104 54 140C54 138.974 54.7721 138.129 55.7668 138.013L56 138H122V39.9995C122 38.9738 122.772 38.1285 123.767 38.013L124 37.9995Z" fill="#000091"/>
</svg>
