<svg width="24" height="24" viewBox="0 0 24 24" fill="none" xmlns="http://www.w3.org/2000/svg">
<g id="Ic&#195;&#180;ne">
<path id="Ic&#195;&#180;ne_2" fill-rule="evenodd" clip-rule="evenodd" d="M12 1.99951C17.523 1.99951 22 6.47651 22 11.9995C22 17.5225 17.523 21.9995 12 21.9995C6.477 21.9995 2 17.5225 2 11.9995C2 6.47651 6.477 1.99951 12 1.99951ZM12 3.99951C7.58172 3.99951 4 7.58123 4 11.9995C4 16.4178 7.58172 19.9995 12 19.9995C16.4183 19.9995 20 16.4178 20 11.9995C20 7.58123 16.4183 3.99951 12 3.99951ZM13 6.99951V11.9995H17V13.9995H11V6.99951H13Z" fill="#666666"/>
</g>
</svg>
