<svg width="24" height="25" viewBox="0 0 24 25" fill="none" xmlns="http://www.w3.org/2000/svg">
<g id="Ic&#195;&#180;ne">
<path id="Ic&#195;&#180;ne_2" fill-rule="evenodd" clip-rule="evenodd" d="M20.4499 15.4377C22.0423 16.6713 22.4691 18.8965 21.446 20.6316L22.95 22.1356L21.536 23.5496L20.032 22.0456C18.2969 23.0687 16.0717 22.6419 14.8381 21.0495C13.6046 19.4571 13.7476 17.1959 15.1719 15.7715C16.5963 14.3472 18.8575 14.2042 20.4499 15.4377ZM12 14.5996V16.5996C8.68629 16.5996 6 19.2859 6 22.5996H4C4 18.1813 7.58172 14.5996 12 14.5996ZM18 16.5996C16.8954 16.5996 16 17.495 16 18.5996C16 19.7042 16.8954 20.5996 18 20.5996C19.1046 20.5996 20 19.7042 20 18.5996C20 17.495 19.1046 16.5996 18 16.5996ZM12 1.59961C15.315 1.59961 18 4.28461 18 7.59961C18 10.9146 15.315 13.5996 12 13.5996C8.685 13.5996 6 10.9146 6 7.59961C6 4.28461 8.685 1.59961 12 1.59961ZM12 3.59961C9.79 3.59961 8 5.38961 8 7.59961C8 9.80961 9.79 11.5996 12 11.5996C14.21 11.5996 16 9.80961 16 7.59961C16 5.38961 14.21 3.59961 12 3.59961Z" fill="#666666"/>
</g>
</svg>
