<svg width="19" height="22" viewBox="0 0 19 22" fill="none" xmlns="http://www.w3.org/2000/svg">
<path d="M10 13.2515V15.3409C9.3744 15.1198 8.7013 14.9995 8 14.9995C4.68629 14.9995 2 17.6858 2 20.9995H0C0 16.5812 3.58172 12.9995 8 12.9995C8.6906 12.9995 9.3608 13.087 10 13.2515ZM8 11.9995C4.685 11.9995 2 9.31451 2 5.99951C2 2.68451 4.685 -0.000488281 8 -0.000488281C11.315 -0.000488281 14 2.68451 14 5.99951C14 9.31451 11.315 11.9995 8 11.9995ZM8 9.99951C10.21 9.99951 12 8.20951 12 5.99951C12 3.78951 10.21 1.99951 8 1.99951C5.79 1.99951 4 3.78951 4 5.99951C4 8.20951 5.79 9.99951 8 9.99951ZM15 16.5853L17.1213 14.464L18.5355 15.8782L16.4142 17.9995L18.5355 20.1208L17.1213 21.535L15 19.4137L12.8787 21.535L11.4645 20.1208L13.5858 17.9995L11.4645 15.8782L12.8787 14.464L15 16.5853Z" fill="#666666"/>
</svg>
