<svg width="16" height="21" viewBox="0 0 16 21" fill="none" xmlns="http://www.w3.org/2000/svg">
<path d="M0 20.9995C0 16.5812 3.58172 12.9995 8 12.9995C12.4183 12.9995 16 16.5812 16 20.9995H14C14 17.6858 11.3137 14.9995 8 14.9995C4.68629 14.9995 2 17.6858 2 20.9995H0ZM8 11.9995C4.685 11.9995 2 9.31451 2 5.99951C2 2.68451 4.685 -0.000488281 8 -0.000488281C11.315 -0.000488281 14 2.68451 14 5.99951C14 9.31451 11.315 11.9995 8 11.9995ZM8 9.99951C10.21 9.99951 12 8.20951 12 5.99951C12 3.78951 10.21 1.99951 8 1.99951C5.79 1.99951 4 3.78951 4 5.99951C4 8.20951 5.79 9.99951 8 9.99951Z" fill="#666666"/>
</svg>
