<svg width="56" height="56" viewBox="0 0 56 56" fill="none" xmlns="http://www.w3.org/2000/svg">
<path fill-rule="evenodd" clip-rule="evenodd" d="M10.5008 9.79941C10.1148 9.79941 9.80078 9.48539 9.80078 9.09941C9.80078 8.7134 10.1148 8.39941 10.5008 8.39941C10.8868 8.39941 11.2008 8.7134 11.2008 9.09941C11.2008 9.48539 10.8868 9.79941 10.5008 9.79941Z" fill="#ECECFE"/>
<path fill-rule="evenodd" clip-rule="evenodd" d="M3.50078 48.9996C3.1148 48.9996 2.80078 48.6856 2.80078 48.2996C2.80078 47.9136 3.1148 47.5996 3.50078 47.5996C3.88676 47.5996 4.20078 47.9136 4.20078 48.2996C4.20078 48.6856 3.88676 48.9996 3.50078 48.9996Z" fill="#ECECFE"/>
<path fill-rule="evenodd" clip-rule="evenodd" d="M52.5008 44.7994C52.1148 44.7994 51.8008 44.4854 51.8008 44.0994C51.8008 43.7134 52.1148 43.3994 52.5008 43.3994C52.8868 43.3994 53.2008 43.7134 53.2008 44.0994C53.2008 44.4854 52.8868 44.7994 52.5008 44.7994Z" fill="#ECECFE"/>
<path fill-rule="evenodd" clip-rule="evenodd" d="M41.3016 8.39951C40.9156 8.39951 40.6016 8.08549 40.6016 7.69951C40.6016 7.3135 40.9156 6.99951 41.3016 6.99951C41.6875 6.99951 42.0016 7.3135 42.0016 7.69951C42.0016 8.08549 41.6875 8.39951 41.3016 8.39951Z" fill="#ECECFE"/>
<path d="M29.5035 6.99951C41.1015 6.99951 50.5035 16.4015 50.5035 27.9995C50.5035 28.3861 50.1901 28.6995 49.8035 28.6995C49.4169 28.6995 49.1035 28.3861 49.1035 27.9995C49.1035 17.1747 40.3283 8.39951 29.5035 8.39951C18.6787 8.39951 9.9035 17.1747 9.9035 27.9995C9.9035 38.8243 18.6787 47.5995 29.5035 47.5995C37.3118 47.5995 44.2785 42.9918 47.4084 35.9853C47.5661 35.6323 47.98 35.474 48.333 35.6317C48.686 35.7894 48.8443 36.2034 48.6866 36.5563C45.3335 44.0626 37.8691 48.9995 29.5035 48.9995C17.9055 48.9995 8.5035 39.5975 8.5035 27.9995C8.5035 16.4015 17.9055 6.99951 29.5035 6.99951Z" fill="#E1000F"/>
<path d="M49.8035 34.0143C49.8035 34.4296 49.4669 34.7662 49.0516 34.7662C48.6364 34.7662 48.2998 34.4296 48.2998 34.0143C48.2998 33.5991 48.6364 33.2625 49.0516 33.2625C49.4669 33.2625 49.8035 33.5991 49.8035 34.0143Z" fill="#E1000F"/>
<path d="M10.145 14.722C9.83741 14.4878 9.39821 14.5473 9.16403 14.8549C6.79829 17.9625 5.49609 21.7553 5.49609 25.744C5.49609 26.1306 5.80949 26.444 6.19609 26.444C6.58269 26.444 6.89609 26.1306 6.89609 25.744C6.89609 22.0644 8.09622 18.5688 10.278 15.7029C10.5121 15.3953 10.4526 14.9561 10.145 14.722Z" fill="#E1000F"/>
<path fill-rule="evenodd" clip-rule="evenodd" d="M39.1976 24.4413C38.7007 18.479 35.3645 15.3994 29.4 15.3994C23.4355 15.3994 20.0993 18.479 19.6024 24.4413C19.5648 24.8925 19.959 25.2601 20.4064 25.1913L21.7 24.9923V25.2981C21.1989 25.3947 20.8296 25.5283 20.5707 25.7213C19.9142 26.2108 19.5999 26.9937 19.5999 27.9994C19.5999 29.786 20.6133 30.7994 22.3999 30.7994C22.4761 30.7994 22.5495 30.7872 22.6182 30.7647C23.3629 32.2087 24.5173 33.3886 25.92 34.1328C25.9069 34.1862 25.9 34.242 25.9 34.2994C25.9 35.2085 25.4668 36.0164 24.7955 36.5279C24.7847 36.5355 24.7741 36.5435 24.7638 36.5517C24.2986 36.8959 23.7231 37.0994 23.1 37.0994H21.7L21.5425 37.1023C19.2959 37.1851 17.5 39.0325 17.5 41.2994C17.5 41.686 17.8134 41.9994 18.2 41.9994C18.5866 41.9994 18.9 41.686 18.9 41.2994C18.9 39.753 20.1536 38.4994 21.7 38.4994H23.1L23.2575 38.4965C23.8429 38.4749 24.3978 38.3335 24.8983 38.0961C25.6488 39.2772 27.0329 39.6377 28.8698 39.1785C29.2448 39.0847 29.4729 38.7047 29.3791 38.3296C29.2853 37.9546 28.9053 37.7265 28.5302 37.8203C27.2214 38.1475 26.457 37.9704 26.0492 37.2898C26.7342 36.6142 27.1882 35.705 27.282 34.6913C27.9546 34.8919 28.6651 34.9994 29.4 34.9994C30.1349 34.9994 30.8454 34.8919 31.518 34.6913C31.7109 36.7757 33.4269 38.4185 35.5425 38.4965L35.7 38.4994H37.1C38.6464 38.4994 39.9 39.753 39.9 41.2994C39.9 41.686 40.2134 41.9994 40.6 41.9994C40.9866 41.9994 41.3 41.686 41.3 41.2994C41.3 39.0325 39.5041 37.1851 37.2575 37.1023L37.1 37.0994H35.7C34.1536 37.0994 32.9 35.8458 32.9 34.2994C32.9 34.242 32.8931 34.1862 32.88 34.1328C34.2827 33.3886 35.4371 32.2087 36.1818 30.7647C36.2505 30.7872 36.3238 30.7994 36.4 30.7994C38.1866 30.7994 39.2 29.786 39.2 27.9994C39.2 26.9937 38.8858 26.2108 38.2292 25.7213C37.8753 25.4575 37.3151 25.3046 36.4941 25.2057C36.4642 25.2017 36.4336 25.1995 36.4026 25.1994L36.4015 25.1993C36.3339 25.1991 36.2681 25.2087 36.2056 25.2268C36.1047 25.2559 36.0132 25.307 35.9367 25.3747C35.8012 25.4944 35.7125 25.6657 35.7012 25.8578C35.7002 25.8754 35.6998 25.8928 35.7 25.9102V26.9494L35.6974 27.1424C35.6006 30.7328 32.8106 33.5994 29.4 33.5994C25.9285 33.5994 23.1 30.6295 23.1 26.9494V24.7769L29.5064 23.7913L29.589 23.7734C29.7778 23.7205 29.9373 23.5902 30.0261 23.4125L30.7261 22.0125L30.7584 21.9373C30.8779 21.6079 30.7341 21.2339 30.413 21.0733L30.3379 21.041C30.0085 20.9215 29.6344 21.0653 29.4739 21.3864L28.9352 22.4624L21.098 23.6678L21.1108 23.5777C21.7968 19.0051 24.5023 16.7994 29.4 16.7994L29.6514 16.8014C34.3072 16.8749 36.9223 19.0072 37.652 23.3433L37.688 23.5747L33.0698 22.4203L32.9894 22.4051C32.6419 22.3599 32.308 22.5814 32.2209 22.9296C32.1271 23.3047 32.3552 23.6847 32.7302 23.7785L38.3302 25.1785L38.412 25.194C38.8459 25.2503 39.2351 24.8912 39.1976 24.4413ZM21.7 26.7325C21.5515 26.7715 21.4524 26.8102 21.4075 26.8437C21.1451 27.0393 20.9999 27.4011 20.9999 27.9994C20.9999 28.8897 21.2983 29.2962 22.0579 29.3819C21.8444 28.6769 21.7212 27.9303 21.7025 27.1568L21.7 26.9494V26.7325ZM37.8 27.9994C37.8 28.8897 37.5016 29.2962 36.7421 29.3819C36.9746 28.6141 37.1 27.7968 37.1 26.9494V26.7325C37.2484 26.7715 37.3475 26.8102 37.3924 26.8437C37.6548 27.0393 37.8 27.4011 37.8 27.9994Z" fill="#000091"/>
</svg>
