<svg width="100" height="100" viewBox="0 0 100 100" fill="none" xmlns="http://www.w3.org/2000/svg">
<path fill-rule="evenodd" clip-rule="evenodd" d="M73.75 94.9995C73.0607 94.9995 72.5 94.4388 72.5 93.7495C72.5 93.0602 73.0607 92.4995 73.75 92.4995C74.4393 92.4995 75 93.0602 75 93.7495C75 94.4388 74.4393 94.9995 73.75 94.9995Z" fill="#ECECFE"/>
<path fill-rule="evenodd" clip-rule="evenodd" d="M83.75 14.9995C83.0607 14.9995 82.5 14.4388 82.5 13.7495C82.5 13.0602 83.0607 12.4995 83.75 12.4995C84.4393 12.4995 85 13.0602 85 13.7495C85 14.4388 84.4393 14.9995 83.75 14.9995Z" fill="#ECECFE"/>
<path fill-rule="evenodd" clip-rule="evenodd" d="M11.25 19.9995C10.5607 19.9995 10 19.4388 10 18.7495C10 18.0602 10.5607 17.4995 11.25 17.4995C11.9393 17.4995 12.5 18.0602 12.5 18.7495C12.5 19.4388 11.9393 19.9995 11.25 19.9995Z" fill="#ECECFE"/>
<path d="M46.25 28.7495C46.25 28.0592 45.6904 27.4995 45 27.4995H30L29.8542 27.5079C29.2326 27.5801 28.75 28.1085 28.75 28.7495C28.75 29.4399 29.3096 29.9995 30 29.9995H45L45.1458 29.9911C45.7674 29.9189 46.25 29.3906 46.25 28.7495Z" fill="#E1000F"/>
<path d="M48.75 49.9995C47.3693 49.9995 46.25 51.1188 46.25 52.4995C46.25 55.6083 47.5108 57.4995 50 57.4995C50.6904 57.4995 51.25 56.9399 51.25 56.2495C51.25 55.5592 50.6904 54.9995 50 54.9995L49.8824 54.9953C49.7332 54.9842 49.5991 54.951 49.4798 54.8913C50.5045 54.579 51.25 53.6263 51.25 52.4995C51.25 51.1188 50.1307 49.9995 48.75 49.9995Z" fill="#E1000F"/>
<path d="M53.75 52.4995C53.75 51.1188 54.8693 49.9995 56.25 49.9995C57.6307 49.9995 58.75 51.1188 58.75 52.4995C58.75 53.6263 58.0045 54.579 56.9798 54.8913C57.0991 54.951 57.2332 54.9842 57.3824 54.9953L57.5 54.9995C58.1904 54.9995 58.75 55.5592 58.75 56.2495C58.75 56.9399 58.1904 57.4995 57.5 57.4995C55.0108 57.4995 53.75 55.6083 53.75 52.4995Z" fill="#E1000F"/>
<path d="M42.5 32.4995C43.1904 32.4995 43.75 33.0592 43.75 33.7495C43.75 34.3906 43.2674 34.9189 42.6458 34.9911L42.5 34.9995H30C29.3096 34.9995 28.75 34.4399 28.75 33.7495C28.75 33.1085 29.2326 32.5801 29.8542 32.5079L30 32.4995H42.5Z" fill="#E1000F"/>
<path d="M38.75 38.7495C38.75 38.0592 38.1904 37.4995 37.5 37.4995H30L29.8542 37.5079C29.2326 37.5801 28.75 38.1085 28.75 38.7495C28.75 39.4399 29.3096 39.9995 30 39.9995H37.5L37.6458 39.9911C38.2674 39.9189 38.75 39.3906 38.75 38.7495Z" fill="#E1000F"/>
<path d="M70 62.4995C70.6904 62.4995 71.25 63.0592 71.25 63.7495C71.25 64.3906 70.7674 64.9189 70.1458 64.9911L70 64.9995H47.5C46.8096 64.9995 46.25 64.4399 46.25 63.7495C46.25 63.1085 46.7325 62.5801 47.3542 62.5079L47.5 62.4995H70Z" fill="#E1000F"/>
<path d="M66.25 68.7495C66.25 68.0592 65.6904 67.4995 65 67.4995H47.5L47.3542 67.5079C46.7325 67.5801 46.25 68.1085 46.25 68.7495C46.25 69.4399 46.8096 69.9995 47.5 69.9995H65L65.1458 69.9911C65.7674 69.9189 66.25 69.3906 66.25 68.7495Z" fill="#E1000F"/>
<path d="M40 14.9995C48.5676 14.9995 55.3599 20.0709 58.6599 28.2835C58.9173 28.924 58.6066 29.652 57.9661 29.9094C57.3255 30.1668 56.5975 29.8561 56.3401 29.2156C53.4048 21.9104 47.4971 17.4995 40 17.4995C29.6447 17.4995 21.25 25.8942 21.25 36.2495C21.25 40.2693 22.5166 44.0948 24.8322 47.2746C25.1258 47.6777 25.1489 48.2115 24.9047 48.6347L24.8134 48.7714L20.0338 54.9995H27.5C28.141 54.9995 28.6694 55.4821 28.7416 56.1037L28.75 56.2495C28.75 56.8906 28.2675 57.4189 27.6458 57.4911L27.5 57.4995H17.5C16.5107 57.4995 15.9316 56.4164 16.4297 55.6028L16.5083 55.4886L22.275 47.972L22.2043 47.8675C20.0635 44.5954 18.8577 40.7858 18.7569 36.7948L18.75 36.2495C18.75 24.5135 28.2639 14.9995 40 14.9995Z" fill="#000091"/>
<path d="M58.75 34.9995C72.5571 34.9995 83.75 46.1924 83.75 59.9995C83.75 63.9128 82.8492 67.7001 81.1422 71.1285C80.8345 71.7464 80.084 71.998 79.466 71.6903C78.8481 71.3826 78.5965 70.6321 78.9042 70.0142C80.4399 66.93 81.25 63.5239 81.25 59.9995C81.25 47.5731 71.1764 37.4995 58.75 37.4995C46.3236 37.4995 36.25 47.5731 36.25 59.9995C36.25 72.2878 46.101 82.2754 58.3367 82.4958L58.75 82.4995H80.1637L76.4599 76.9429C76.1044 76.4095 76.2128 75.7022 76.69 75.2973L76.8066 75.2094C77.34 74.8539 78.0473 74.9623 78.4522 75.4395L78.5401 75.5561L83.5401 83.0561C84.0675 83.8473 83.5525 84.8942 82.6398 84.9921L82.5 84.9995H58.75C44.9429 84.9995 33.75 73.8066 33.75 59.9995C33.75 46.1924 44.9429 34.9995 58.75 34.9995Z" fill="#000091"/>
<path d="M68.75 23.7495C68.75 24.4388 69.3108 24.9995 70 24.9995C70.6892 24.9995 71.25 24.4388 71.25 23.7495C71.25 23.0602 70.6892 22.4995 70 22.4995C69.3108 22.4995 68.75 23.0602 68.75 23.7495Z" fill="#000091"/>
<path d="M75 24.9995C74.3108 24.9995 73.75 24.4388 73.75 23.7495C73.75 23.0602 74.3108 22.4995 75 22.4995C75.6892 22.4995 76.25 23.0602 76.25 23.7495C76.25 24.4388 75.6892 24.9995 75 24.9995Z" fill="#000091"/>
<path d="M78.75 23.7495C78.75 24.4388 79.3108 24.9995 80 24.9995C80.6892 24.9995 81.25 24.4388 81.25 23.7495C81.25 23.0602 80.6892 22.4995 80 22.4995C79.3108 22.4995 78.75 23.0602 78.75 23.7495Z" fill="#000091"/>
<path fill-rule="evenodd" clip-rule="evenodd" d="M85 17.4995H65C64.3096 17.4995 63.75 18.0592 63.75 18.7495V28.7495L63.7584 28.8953C63.8306 29.517 64.359 29.9995 65 29.9995H74.4812L79.1161 34.6334L79.2218 34.7285C80.0181 35.3713 81.25 34.8147 81.25 33.7495V29.9995H85C85.6904 29.9995 86.25 29.4399 86.25 28.7495V18.7495C86.25 18.0592 85.6904 17.4995 85 17.4995ZM83.75 19.9995V27.4995H80L79.8542 27.5079C79.2326 27.5801 78.75 28.1085 78.75 28.7495V30.7308L75.8839 27.8656L75.76 27.7571C75.5431 27.591 75.2763 27.4995 75 27.4995H66.25V19.9995H83.75Z" fill="#000091"/>
<path d="M20 72.4995C20.6904 72.4995 21.25 73.0592 21.25 73.7495C21.25 74.3906 20.7674 74.9189 20.1458 74.9911L20 74.9995H15C14.3096 74.9995 13.75 74.4399 13.75 73.7495C13.75 73.1085 14.2326 72.5801 14.8542 72.5079L15 72.4995H20Z" fill="#000091"/>
<path d="M23.75 73.7495C23.75 74.4388 24.3108 74.9995 25 74.9995C25.6892 74.9995 26.25 74.4388 26.25 73.7495C26.25 73.0602 25.6892 72.4995 25 72.4995C24.3108 72.4995 23.75 73.0602 23.75 73.7495Z" fill="#000091"/>
<path d="M30 74.9995C29.3108 74.9995 28.75 74.4388 28.75 73.7495C28.75 73.0602 29.3108 72.4995 30 72.4995C30.6893 72.4995 31.25 73.0602 31.25 73.7495C31.25 74.4388 30.6893 74.9995 30 74.9995Z" fill="#000091"/>
</svg>
