<svg width="56" height="56" viewBox="0 0 56 56" fill="none" xmlns="http://www.w3.org/2000/svg">
<path fill-rule="evenodd" clip-rule="evenodd" d="M53.2 48.9996C52.814 48.9996 52.5 48.6856 52.5 48.2996C52.5 47.9136 52.814 47.5996 53.2 47.5996C53.586 47.5996 53.9 47.9136 53.9 48.2996C53.9 48.6856 53.586 48.9996 53.2 48.9996Z" fill="#ECECFE"/>
<path fill-rule="evenodd" clip-rule="evenodd" d="M27.3016 2.79941C26.9156 2.79941 26.6016 2.48539 26.6016 2.09941C26.6016 1.7134 26.9156 1.39941 27.3016 1.39941C27.6875 1.39941 28.0016 1.7134 28.0016 2.09941C28.0016 2.48539 27.6875 2.79941 27.3016 2.79941Z" fill="#ECECFE"/>
<path fill-rule="evenodd" clip-rule="evenodd" d="M2.80156 43.3995C2.41558 43.3995 2.10156 43.0855 2.10156 42.6995C2.10156 42.3135 2.41558 41.9995 2.80156 41.9995C3.18754 41.9995 3.50156 42.3135 3.50156 42.6995C3.50156 43.0855 3.18754 43.3995 2.80156 43.3995Z" fill="#ECECFE"/>
<path fill-rule="evenodd" clip-rule="evenodd" d="M37.9744 30.2361L40.693 23.6832C40.9893 22.969 41.8084 22.6303 42.5226 22.9266C42.8637 23.0681 43.1351 23.3386 43.2776 23.6793L46.0203 30.2333C46.1776 30.6094 46.1633 31.0353 45.981 31.3999L44.918 33.5258C44.8833 33.5953 44.8432 33.6611 44.7984 33.7227V36.2861L46.1625 40.3783C46.1869 40.4515 46.199 40.5281 46.1984 40.6049L46.1936 40.6816L45.2038 49.0816C45.1655 49.407 44.908 49.6583 44.5895 49.6951L44.5086 49.6997H39.4882C39.1606 49.6997 38.8809 49.4734 38.8071 49.1613L38.793 49.0816L38.4683 46.3254C38.423 45.9414 38.6976 45.5935 39.0815 45.5483C39.4381 45.5062 39.7635 45.74 39.8444 46.081L39.8586 46.1615L40.1105 48.2997H43.8856L44.7844 40.6718L43.5937 37.0997H40.4024L39.1625 40.8211C39.049 41.1616 38.6991 41.3569 38.356 41.2851L38.2771 41.2638C37.9365 41.1503 37.7413 40.8003 37.813 40.4573L37.8344 40.3783L39.1984 36.2861V33.7227C39.1537 33.6611 39.1136 33.5953 39.0789 33.5258L38.0153 31.3987C37.8337 31.0355 37.8188 30.6113 37.9744 30.2361ZM40.5984 34.2997V35.6997H43.3984V34.2997H40.5984ZM41.2984 25.8773L39.2675 30.7726L40.3311 32.8997H43.6658L44.7288 30.7738L42.6984 25.9219V29.3997C42.6984 29.7863 42.385 30.0997 41.9984 30.0997C41.6395 30.0997 41.3436 29.8295 41.3031 29.4813L41.2984 29.3997V25.8773Z" fill="#E1000F"/>
<path d="M32.8984 37.0997C34.2184 37.0997 34.9984 37.8798 34.9984 39.1997C34.9984 39.2569 34.9914 39.314 34.9775 39.3695C34.6238 40.7844 33.0509 41.7041 30.2442 42.2111L29.7908 42.2878C29.6362 42.3122 29.4783 42.3354 29.3169 42.3576L28.8224 42.4208C28.7383 42.4307 28.6533 42.4404 28.5674 42.4498L28.0422 42.503L27.4963 42.5497L26.9299 42.59L26.3428 42.6238C26.2433 42.6289 26.1429 42.6337 26.0416 42.6383L25.4237 42.6627L24.7851 42.6809L24.1259 42.693L23.0984 42.6997C22.7118 42.6997 22.3984 42.3863 22.3984 41.9997C22.3984 41.6131 22.7118 41.2997 23.0984 41.2997L23.7634 41.2967C23.8725 41.2957 23.9806 41.2944 24.0879 41.2929L24.7206 41.2809L25.3319 41.2631L25.9216 41.2394L26.4897 41.2101L27.0363 41.1752L27.5613 41.1348L28.0647 41.089C28.1468 41.0809 28.228 41.0726 28.3083 41.064L28.7792 41.0102C29.0093 40.982 29.2313 40.9519 29.4451 40.9198L29.862 40.8531L30.2571 40.7815L30.6306 40.705C32.3229 40.3366 33.3061 39.8113 33.5731 39.1693L33.5963 39.1052L33.5917 39.0227C33.5592 38.6459 33.4037 38.5169 32.9909 38.5013L32.8984 38.4997C32.1713 38.4997 31.4055 38.8826 30.5934 39.6947C30.1716 40.1165 29.4634 39.8491 29.4026 39.2792L29.3984 39.1997C29.3984 38.653 29.2452 38.4997 28.6984 38.4997C27.9713 38.4997 27.2055 38.8826 26.3934 39.6947C26.12 39.968 25.6768 39.968 25.4035 39.6947C25.1301 39.4213 25.1301 38.9781 25.4035 38.7047C26.458 37.6501 27.5589 37.0997 28.6984 37.0997C29.4998 37.0997 30.1022 37.3872 30.4518 37.9086L30.4792 37.953L30.6162 37.8579C31.3002 37.3959 32.0017 37.1408 32.7188 37.1043L32.8984 37.0997Z" fill="#E1000F"/>
<path d="M39.1945 8.31807C39.1541 7.96994 38.8582 7.69971 38.4992 7.69971H11.8992L11.8176 7.70442C11.4694 7.74485 11.1992 8.04072 11.1992 8.39971V46.1997L11.2039 46.2813C11.2444 46.6295 11.5402 46.8997 11.8992 46.8997H34.2992L34.3809 46.895C34.729 46.8546 34.9992 46.5587 34.9992 46.1997L34.9945 46.1181C34.9541 45.7699 34.6582 45.4997 34.2992 45.4997H12.5992V9.09971H37.7992V22.3997L37.8039 22.4813C37.8444 22.8295 38.1402 23.0997 38.4992 23.0997C38.8858 23.0997 39.1992 22.7863 39.1992 22.3997V8.39971L39.1945 8.31807Z" fill="#000091"/>
<path d="M27.9992 12.5997C27.9992 12.2131 27.6858 11.8997 27.2992 11.8997H16.0992L16.0176 11.9044C15.6694 11.9449 15.3992 12.2407 15.3992 12.5997C15.3992 12.9863 15.7126 13.2997 16.0992 13.2997H27.2992L27.3809 13.295C27.729 13.2546 27.9992 12.9587 27.9992 12.5997Z" fill="#000091"/>
<path d="M34.2992 16.0997C34.6858 16.0997 34.9992 16.4131 34.9992 16.7997C34.9992 17.1587 34.729 17.4546 34.3809 17.495L34.2992 17.4997H16.0992C15.7126 17.4997 15.3992 17.1863 15.3992 16.7997C15.3992 16.4407 15.6694 16.1449 16.0176 16.1044L16.0992 16.0997H34.2992Z" fill="#000091"/>
<path d="M30.7992 20.9997C30.7992 20.6131 30.4858 20.2997 30.0992 20.2997H16.0992L16.0176 20.3044C15.6694 20.3449 15.3992 20.6407 15.3992 20.9997C15.3992 21.3863 15.7126 21.6997 16.0992 21.6997H30.0992L30.1809 21.695C30.529 21.6546 30.7992 21.3587 30.7992 20.9997Z" fill="#000091"/>
<path d="M34.2992 24.4997C34.6858 24.4997 34.9992 24.8131 34.9992 25.1997C34.9992 25.5587 34.729 25.8546 34.3809 25.895L34.2992 25.8997H16.0992C15.7126 25.8997 15.3992 25.5863 15.3992 25.1997C15.3992 24.8407 15.6694 24.5449 16.0176 24.5044L16.0992 24.4997H34.2992Z" fill="#000091"/>
<path d="M41.9945 13.9181C41.9541 13.5699 41.6582 13.2997 41.2992 13.2997C40.9126 13.2997 40.5992 13.6131 40.5992 13.9997V19.5997L40.6039 19.6813C40.6444 20.0295 40.9402 20.2997 41.2992 20.2997C41.6858 20.2997 41.9992 19.9863 41.9992 19.5997V13.9997L41.9945 13.9181Z" fill="#000091"/>
<path d="M35.6992 48.2997C36.0858 48.2997 36.3992 48.6131 36.3992 48.9997C36.3992 49.3587 36.129 49.6546 35.7809 49.695L35.6992 49.6997H17.4992C17.1126 49.6997 16.7992 49.3863 16.7992 48.9997C16.7992 48.6407 17.0694 48.3449 17.4176 48.3044L17.4992 48.2997H35.6992Z" fill="#000091"/>
<path d="M30.7992 29.3997C30.7992 29.0131 30.4858 28.6997 30.0992 28.6997H16.0992L16.0176 28.7044C15.6694 28.7449 15.3992 29.0407 15.3992 29.3997C15.3992 29.7863 15.7126 30.0997 16.0992 30.0997H30.0992L30.1809 30.095C30.529 30.0546 30.7992 29.7587 30.7992 29.3997Z" fill="#000091"/>
</svg>
