<svg width="56" height="56" viewBox="0 0 56 56" fill="none" xmlns="http://www.w3.org/2000/svg">
<path d="M27.2992 11.8997C27.2992 11.5131 26.9858 11.1997 26.5992 11.1997H15.3992L15.3176 11.2044C14.9694 11.2449 14.6992 11.5407 14.6992 11.8997C14.6992 12.2863 15.0126 12.5997 15.3992 12.5997H26.5992L26.6809 12.595C27.029 12.5546 27.2992 12.2587 27.2992 11.8997Z" fill="#E1000F"/>
<path d="M33.5992 15.3997C33.9858 15.3997 34.2992 15.7131 34.2992 16.0997C34.2992 16.4587 34.029 16.7546 33.6809 16.795L33.5992 16.7997H15.3992C15.0126 16.7997 14.6992 16.4863 14.6992 16.0997C14.6992 15.7407 14.9694 15.4449 15.3176 15.4044L15.3992 15.3997H33.5992Z" fill="#E1000F"/>
<path d="M30.0992 20.2997C30.0992 19.9131 29.7858 19.5997 29.3992 19.5997H15.3992L15.3176 19.6044C14.9694 19.6449 14.6992 19.9407 14.6992 20.2997C14.6992 20.6863 15.0126 20.9997 15.3992 20.9997H29.3992L29.4809 20.995C29.829 20.9546 30.0992 20.6587 30.0992 20.2997Z" fill="#E1000F"/>
<path fill-rule="evenodd" clip-rule="evenodd" d="M40.8817 43.8636C42.7247 44.6214 44.0271 46.233 44.0963 48.1397L44.0992 48.2997H42.6992C42.6992 46.3927 40.8407 44.7997 38.4992 44.7997C36.2135 44.7997 34.388 46.3178 34.3024 48.164L34.2992 48.2997H32.8992C32.8992 46.3235 34.2224 44.6425 36.1167 43.8636C35.4293 43.2245 34.9992 42.3123 34.9992 41.2997C34.9992 39.3667 36.5662 37.7997 38.4992 37.7997C40.4322 37.7997 41.9992 39.3667 41.9992 41.2997C41.9992 42.3123 41.5692 43.2245 40.8817 43.8636ZM38.4992 43.3997C39.659 43.3997 40.5992 42.4595 40.5992 41.2997C40.5992 40.1399 39.659 39.1997 38.4992 39.1997C37.3394 39.1997 36.3992 40.1399 36.3992 41.2997C36.3992 42.4595 37.3394 43.3997 38.4992 43.3997Z" fill="#E1000F"/>
<path fill-rule="evenodd" clip-rule="evenodd" d="M32.1992 33.5997H44.7992C45.959 33.5997 46.8992 34.5399 46.8992 35.6997V49.6997C46.8992 50.8595 45.959 51.7997 44.7992 51.7997H32.1992C31.0394 51.7997 30.0992 50.8595 30.0992 49.6997V35.6997C30.0992 34.5399 31.0394 33.5997 32.1992 33.5997ZM44.7992 34.9997H32.1992C31.8126 34.9997 31.4992 35.3131 31.4992 35.6997V49.6997C31.4992 50.0863 31.8126 50.3997 32.1992 50.3997H44.7992C45.1858 50.3997 45.4992 50.0863 45.4992 49.6997V35.6997C45.4992 35.3131 45.1858 34.9997 44.7992 34.9997Z" fill="#E1000F"/>
<path d="M37.8 6.99951C38.159 6.99951 38.4549 7.26974 38.4953 7.61788L38.5 7.69951V30.0995C38.5 30.4861 38.1866 30.7995 37.8 30.7995C37.441 30.7995 37.1451 30.5293 37.1047 30.1811L37.1 30.0995V8.39951H11.9V44.7995H26.6C26.959 44.7995 27.2549 45.0697 27.2953 45.4179L27.3 45.4995C27.3 45.8585 27.0298 46.1544 26.6816 46.1948L26.6 46.1995H11.2C10.841 46.1995 10.5451 45.9293 10.5047 45.5811L10.5 45.4995V7.69951C10.5 7.34053 10.7702 7.04466 11.1184 7.00422L11.2 6.99951H37.8Z" fill="#000091"/>
<path d="M33.6 23.7995C33.9866 23.7995 34.3 24.1129 34.3 24.4995C34.3 24.8585 34.0298 25.1544 33.6816 25.1948L33.6 25.1995H15.4C15.0134 25.1995 14.7 24.8861 14.7 24.4995C14.7 24.1405 14.9702 23.8447 15.3184 23.8042L15.4 23.7995H33.6Z" fill="#000091"/>
<path d="M28.7 32.8995C28.7 32.5129 28.3866 32.1995 28 32.1995H15.4L15.3184 32.2042C14.9702 32.2447 14.7 32.5405 14.7 32.8995C14.7 33.2861 15.0134 33.5995 15.4 33.5995H28L28.0816 33.5948C28.4298 33.5544 28.7 33.2585 28.7 32.8995Z" fill="#000091"/>
<path d="M40.6 6.99951C40.959 6.99951 41.2549 7.26974 41.2953 7.61788L41.3 7.69951V30.0995C41.3 30.4861 40.9866 30.7995 40.6 30.7995C40.241 30.7995 39.9451 30.5293 39.9047 30.1811L39.9 30.0995V7.69951C39.9 7.31291 40.2134 6.99951 40.6 6.99951Z" fill="#000091"/>
<path d="M31.5 28.6995C31.5 28.3129 31.1866 27.9995 30.8 27.9995H15.4L15.3184 28.0042C14.9702 28.0447 14.7 28.3405 14.7 28.6995C14.7 29.0861 15.0134 29.3995 15.4 29.3995H30.8L30.8816 29.3948C31.2298 29.3544 31.5 29.0585 31.5 28.6995Z" fill="#000091"/>
<path d="M22.4 40.5995C22.7866 40.5995 23.1 40.9129 23.1 41.2995C23.1 41.6585 22.8298 41.9544 22.4816 41.9948L22.4 41.9995H15.4C15.0134 41.9995 14.7 41.6861 14.7 41.2995C14.7 40.9405 14.9702 40.6447 15.3184 40.6042L15.4 40.5995H22.4Z" fill="#000091"/>
<path d="M25.9 37.0995C25.9 36.7129 25.5866 36.3995 25.2 36.3995H15.4L15.3184 36.4042C14.9702 36.4447 14.7 36.7405 14.7 37.0995C14.7 37.4861 15.0134 37.7995 15.4 37.7995H25.2L25.2816 37.7948C25.6298 37.7544 25.9 37.4585 25.9 37.0995Z" fill="#000091"/>
</svg>
