<svg width="100" height="100" viewBox="0 0 100 100" fill="none" xmlns="http://www.w3.org/2000/svg">
<path fill-rule="evenodd" clip-rule="evenodd" d="M6.25 74.9995C5.56075 74.9995 5 74.4388 5 73.7495C5 73.0602 5.56075 72.4995 6.25 72.4995C6.93925 72.4995 7.5 73.0602 7.5 73.7495C7.5 74.4388 6.93925 74.9995 6.25 74.9995Z" fill="#ECECFE"/>
<path fill-rule="evenodd" clip-rule="evenodd" d="M20 7.49951C19.3107 7.49951 18.75 6.93876 18.75 6.24951C18.75 5.5602 19.3107 4.99951 20 4.99951C20.6893 4.99951 21.25 5.5602 21.25 6.24951C21.25 6.93876 20.6893 7.49951 20 7.49951Z" fill="#ECECFE"/>
<path fill-rule="evenodd" clip-rule="evenodd" d="M3.75 32.4995C3.06075 32.4995 2.5 31.9388 2.5 31.2495C2.5 30.5602 3.06075 29.9995 3.75 29.9995C4.43925 29.9995 5 30.5602 5 31.2495C5 31.9388 4.43925 32.4995 3.75 32.4995Z" fill="#ECECFE"/>
<path fill-rule="evenodd" clip-rule="evenodd" d="M96.25 69.9995C95.5607 69.9995 95 69.4388 95 68.7495C95 68.0602 95.5607 67.4995 96.25 67.4995C96.9393 67.4995 97.5 68.0602 97.5 68.7495C97.5 69.4388 96.9393 69.9995 96.25 69.9995Z" fill="#ECECFE"/>
<path fill-rule="evenodd" clip-rule="evenodd" d="M93.75 27.4995C93.0607 27.4995 92.5 26.9388 92.5 26.2495C92.5 25.5602 93.0607 24.9995 93.75 24.9995C94.4393 24.9995 95 25.5602 95 26.2495C95 26.9388 94.4393 27.4995 93.75 27.4995Z" fill="#ECECFE"/>
<path d="M48.75 21.2495C48.75 20.5592 48.1904 19.9995 47.5 19.9995H27.5L27.3542 20.0079C26.7325 20.0801 26.25 20.6085 26.25 21.2495C26.25 21.9399 26.8096 22.4995 27.5 22.4995H47.5L47.6458 22.4911C48.2675 22.4189 48.75 21.8906 48.75 21.2495Z" fill="#E1000F"/>
<path d="M60 27.4995C60.6904 27.4995 61.25 28.0592 61.25 28.7495C61.25 29.3906 60.7674 29.9189 60.1458 29.9911L60 29.9995H27.5C26.8096 29.9995 26.25 29.4399 26.25 28.7495C26.25 28.1085 26.7325 27.5801 27.3542 27.5079L27.5 27.4995H60Z" fill="#E1000F"/>
<path d="M53.75 36.2495C53.75 35.5592 53.1904 34.9995 52.5 34.9995H27.5L27.3542 35.0079C26.7325 35.0801 26.25 35.6085 26.25 36.2495C26.25 36.9399 26.8096 37.4995 27.5 37.4995H52.5L52.6458 37.4911C53.2675 37.4189 53.75 36.8906 53.75 36.2495Z" fill="#E1000F"/>
<path d="M67.5 12.4995C68.141 12.4995 68.6694 12.9821 68.7416 13.6037L68.75 13.7495V53.7495C68.75 54.4399 68.1904 54.9995 67.5 54.9995C66.859 54.9995 66.3306 54.517 66.2584 53.8953L66.25 53.7495V14.9995H21.25V79.9995H47.5C48.141 79.9995 48.6694 80.4821 48.7416 81.1037L48.75 81.2495C48.75 81.8906 48.2675 82.4189 47.6458 82.4911L47.5 82.4995H20C19.359 82.4995 18.8306 82.017 18.7584 81.3953L18.75 81.2495V13.7495C18.75 13.1085 19.2326 12.5801 19.8542 12.5079L20 12.4995H67.5Z" fill="#000091"/>
<path d="M60 42.4995C60.6904 42.4995 61.25 43.0592 61.25 43.7495C61.25 44.3906 60.7674 44.9189 60.1458 44.9911L60 44.9995H27.5C26.8096 44.9995 26.25 44.4399 26.25 43.7495C26.25 43.1085 26.7326 42.5801 27.3542 42.5079L27.5 42.4995H60Z" fill="#000091"/>
<path d="M51.25 58.7495C51.25 58.0592 50.6904 57.4995 50 57.4995H27.5L27.3542 57.5079C26.7326 57.5801 26.25 58.1085 26.25 58.7495C26.25 59.4399 26.8096 59.9995 27.5 59.9995H50L50.1458 59.9911C50.7674 59.9189 51.25 59.3906 51.25 58.7495Z" fill="#000091"/>
<path d="M72.5 12.4995C73.141 12.4995 73.6694 12.9821 73.7416 13.6037L73.75 13.7495V53.7495C73.75 54.4399 73.1904 54.9995 72.5 54.9995C71.859 54.9995 71.3306 54.517 71.2584 53.8953L71.25 53.7495V13.7495C71.25 13.0592 71.8096 12.4995 72.5 12.4995Z" fill="#000091"/>
<path d="M56.25 51.2495C56.25 50.5592 55.6904 49.9995 55 49.9995H27.5L27.3542 50.0079C26.7326 50.0801 26.25 50.6085 26.25 51.2495C26.25 51.9399 26.8096 52.4995 27.5 52.4995H55L55.1458 52.4911C55.7674 52.4189 56.25 51.8906 56.25 51.2495Z" fill="#000091"/>
<path d="M40 72.4995C40.6904 72.4995 41.25 73.0592 41.25 73.7495C41.25 74.3906 40.7675 74.9189 40.1458 74.9911L40 74.9995H27.5C26.8096 74.9995 26.25 74.4399 26.25 73.7495C26.25 73.1085 26.7326 72.5801 27.3542 72.5079L27.5 72.4995H40Z" fill="#000091"/>
<path d="M46.25 66.2495C46.25 65.5592 45.6904 64.9995 45 64.9995H27.5L27.3542 65.0079C26.7326 65.0801 26.25 65.6085 26.25 66.2495C26.25 66.9399 26.8096 67.4995 27.5 67.4995H45L45.1458 67.4911C45.7675 67.4189 46.25 66.8906 46.25 66.2495Z" fill="#000091"/>
<path d="M65.625 58.7495C66.1921 58.7495 66.6518 59.2092 66.6518 59.7763C66.6518 60.3434 66.1921 60.8031 65.625 60.8031C58.8201 60.8031 53.3036 66.3196 53.3036 73.1245C53.3036 79.9294 58.8201 85.4459 65.625 85.4459C72.4299 85.4459 77.9464 79.9294 77.9464 73.1245C77.9464 71.0471 77.4326 69.0462 76.4649 67.2612C76.1946 66.7627 76.3796 66.1395 76.8782 65.8692C77.3767 65.5989 77.9999 65.784 78.2702 66.2825C79.3998 68.3661 80 70.7031 80 73.1245C80 81.0636 73.5641 87.4995 65.625 87.4995C57.6859 87.4995 51.25 81.0636 51.25 73.1245C51.25 65.1854 57.6859 58.7495 65.625 58.7495Z" fill="#E1000F"/>
<path fill-rule="evenodd" clip-rule="evenodd" d="M58.352 73.8338L58.4395 73.7648L69.3227 66.0362C70.0668 65.5077 71.079 66.1402 70.9303 67.0407L68.7547 80.2104C68.6064 81.108 67.4504 81.3837 66.9131 80.6495L63.8901 76.5188L58.8522 75.6125C57.9941 75.4581 57.7204 74.3865 58.352 73.8338ZM67.1268 77.4638L68.5025 69.1373L61.6218 74.0239L63.973 74.4471L64.6928 73.2951C64.9933 72.8142 65.6268 72.668 66.1077 72.9685C66.5542 73.2475 66.7122 73.8137 66.4919 74.2782L66.4343 74.3834L65.7148 75.5349L67.1268 77.4638Z" fill="#E1000F"/>
</svg>
