<svg width="35" height="36" viewBox="0 0 35 36" fill="none" xmlns="http://www.w3.org/2000/svg">
<g id="error">
<g id="&#240;&#159;&#142;&#168; Mineure (indice -main)">
<path d="M17.6845 9.29113C17.6845 8.64763 17.119 8.12598 16.4214 8.12598C15.7237 8.12598 15.1582 8.64763 15.1582 9.29113C15.1582 9.93463 15.7237 10.4563 16.4214 10.4563C17.119 10.4563 17.6845 9.93463 17.6845 9.29113Z" fill="#E1000F"/>
<path d="M17.6845 13.9518C17.6845 13.3083 17.119 12.7866 16.4214 12.7866C15.7237 12.7866 15.1582 13.3083 15.1582 13.9518V23.273C15.1582 23.9165 15.7237 24.4382 16.4214 24.4382C17.119 24.4382 17.6845 23.9165 17.6845 23.273V13.9518Z" fill="#E1000F"/>
</g>
<g id="Majeure">
<path d="M25.8947 1.25781C29.3351 1.25781 32.1344 4.03657 32.2224 7.49815L32.2246 7.66617V11.1616C32.2246 11.4834 31.9669 11.7442 31.6491 11.7442C31.354 11.7442 31.1108 11.5193 31.0776 11.2296L31.0737 11.1616V7.66617C31.0737 4.82214 28.8371 2.50698 26.0474 2.4252L25.8947 2.42297H6.32982C3.52065 2.42297 1.23386 4.68734 1.15309 7.51158L1.15088 7.66617V27.4738C1.15088 30.3179 3.3875 32.633 6.17712 32.7148L6.32982 32.717H25.8947C28.7039 32.717 30.9907 30.4527 31.0715 27.6284L31.0737 27.4738V19.3177C31.0737 18.996 31.3313 18.7352 31.6491 18.7352C31.9442 18.7352 32.1874 18.9601 32.2207 19.2498L32.2246 19.3177V27.4738C32.2246 30.9569 29.4799 33.7909 26.0607 33.88L25.8947 33.8822H6.32982C2.88945 33.8822 0.0901337 31.1034 0.00213338 27.6419L0 27.4738V7.66617C0 4.18311 2.74471 1.34906 6.16386 1.25997L6.32982 1.25781H25.8947Z" fill="#000091"/>
<path d="M33.3754 12.3268C33.3754 12.0051 33.6331 11.7442 33.9509 11.7442C34.2687 11.7442 34.5263 12.0051 34.5263 12.3268C34.5263 12.6486 34.2687 12.9094 33.9509 12.9094C33.6331 12.9094 33.3754 12.6486 33.3754 12.3268Z" fill="#000091"/>
<path d="M34.5224 14.5892C34.4892 14.2994 34.246 14.0745 33.9509 14.0745C33.6331 14.0745 33.3754 14.3354 33.3754 14.6571V23.9784L33.3793 24.0463C33.4125 24.336 33.6558 24.5609 33.9509 24.5609C34.2687 24.5609 34.5263 24.3001 34.5263 23.9784V14.6571L34.5224 14.5892Z" fill="#000091"/>
</g>
</g>
</svg>
