<svg width="76" height="76" viewBox="0 0 76 76" fill="none" xmlns="http://www.w3.org/2000/svg">
<path fill-rule="evenodd" clip-rule="evenodd" d="M63.6492 10.4498C63.1254 10.4498 62.6992 10.0236 62.6992 9.4998C62.6992 8.97593 63.1254 8.5498 63.6492 8.5498C64.173 8.5498 64.5992 8.97593 64.5992 9.4998C64.5992 10.0236 64.173 10.4498 63.6492 10.4498Z" fill="#ECECFE"/>
<path fill-rule="evenodd" clip-rule="evenodd" d="M37.9988 70.2999C37.475 70.2999 37.0488 69.8737 37.0488 69.3499C37.0488 68.826 37.475 68.3999 37.9988 68.3999C38.5227 68.3999 38.9488 68.826 38.9488 69.3499C38.9488 69.8737 38.5227 70.2999 37.9988 70.2999Z" fill="#ECECFE"/>
<path fill-rule="evenodd" clip-rule="evenodd" d="M13.2996 7.59971C12.7758 7.59971 12.3496 7.17354 12.3496 6.64971C12.3496 6.12583 12.7758 5.69971 13.2996 5.69971C13.8234 5.69971 14.2496 6.12583 14.2496 6.64971C14.2496 7.17354 13.8234 7.59971 13.2996 7.59971Z" fill="#ECECFE"/>
<path d="M51.7633 22.934C52.2137 22.6648 52.797 22.8118 53.0661 23.2622C53.3353 23.7125 53.1883 24.2958 52.7379 24.565C48.5954 27.0403 41.8809 28.4995 34.2006 28.4995C29.9609 28.4995 26.4688 27.8949 21.6004 26.5659C21.0943 26.4278 20.796 25.9054 20.9342 25.3993C21.0723 24.8931 21.5947 24.5948 22.1008 24.733L23.302 25.0531C27.4064 26.1175 30.5111 26.5995 34.2006 26.5995C41.565 26.5995 47.9519 25.2115 51.7633 22.934Z" fill="#E1000F"/>
<path fill-rule="evenodd" clip-rule="evenodd" d="M49.9764 34.2763C47.9639 35.1388 44.2113 35.828 40.8506 35.828C40.326 35.828 39.9006 36.2534 39.9006 36.778V41.782C39.9006 41.9339 39.9071 42.0856 39.9201 42.2369C40.1713 45.1678 42.7509 47.3401 45.6818 47.0888C48.8597 46.8165 51.3006 44.1574 51.3006 40.9678V35.1495C51.3006 34.4674 50.6033 34.0076 49.9764 34.2763ZM49.4006 36.5023L49.2414 36.5525C47.2658 37.1487 44.6521 37.5865 42.1115 37.6994L41.8006 37.7107L41.8014 41.8553L41.8131 42.0746C41.9748 43.96 43.6341 45.3574 45.5195 45.1958C47.7146 45.0076 49.4006 43.1709 49.4006 40.9678V36.5023Z" fill="#E1000F"/>
<path fill-rule="evenodd" clip-rule="evenodd" d="M34.2008 17.0996C38.9846 17.0996 44.2727 17.8557 48.6949 19.0315C49.2019 19.1663 49.5037 19.6867 49.3689 20.1937C49.234 20.7008 48.7137 21.0025 48.2066 20.8677C43.9371 19.7324 38.8114 18.9996 34.2008 18.9996C33.9236 18.9996 33.6479 19.0014 33.3738 19.0048L32.5562 19.0202C32.4208 19.0236 32.2857 19.0274 32.1511 19.0317L31.3484 19.062L30.5564 19.1019L29.7754 19.1513L29.0061 19.2099C28.8788 19.2205 28.7521 19.2314 28.6259 19.2426L27.8749 19.3146C27.7508 19.3273 27.6272 19.3404 27.5042 19.3539L26.7727 19.4387L26.0548 19.5319L25.3511 19.6332L24.662 19.7423L23.988 19.8591L23.3297 19.9832L22.6875 20.1146L22.062 20.2529C21.7535 20.3238 21.4514 20.3971 21.1561 20.4729L20.5744 20.6276C20.479 20.6539 20.3843 20.6805 20.2905 20.7073L19.7366 20.8712C19.5552 20.9268 19.3769 20.9834 19.202 21.0409L18.687 21.2163C15.7074 22.267 13.7825 23.599 13.3797 25.0043L13.5017 25.0934L14.1951 25.6325C14.461 25.8337 14.725 26.0216 15.0137 26.2116C15.7673 26.7079 16.6231 27.1745 17.6382 27.617C21.6362 29.3595 27.2983 30.3996 35.1508 30.3996C43.0032 30.3996 48.6653 29.3595 52.6633 27.617C53.6784 27.1745 54.5342 26.7079 55.2878 26.2116C55.4803 26.0849 55.6618 25.9592 55.8402 25.8298L56.2268 25.54L56.7998 25.0934C56.9694 24.9644 57.0847 24.8867 57.2143 24.8202C57.6348 24.6043 58.1163 24.5785 58.5227 24.9852L58.6377 25.1068C58.7899 25.2808 58.8541 25.4301 58.8812 25.7337L58.8943 25.9609L58.9494 32.8495L58.9853 40.1402L58.9845 43.2159L58.9683 44.8347L58.9416 45.8226L58.9347 45.954C58.961 45.9666 58.9879 45.9795 59.0154 45.9928C59.5397 46.2465 60.085 46.5388 60.6257 46.8674C62.2212 47.8368 63.4571 48.9136 64.1266 50.1308C65.7649 53.1095 63.8148 55.8123 57.8906 58.1156L57.2636 58.3525L56.6081 58.5864C56.4965 58.6252 56.3837 58.6638 56.2697 58.7023L55.5713 58.9319C55.3338 59.0079 55.0914 59.0835 54.8443 59.1585L54.0885 59.3822C53.9601 59.4192 53.8306 59.4561 53.6998 59.4929L52.9007 59.712C52.765 59.7482 52.6282 59.7844 52.4902 59.8204C41.9839 62.5611 31.582 60.6932 21.8679 55.7893C19.1189 54.4015 16.6332 52.8665 14.4521 51.298C13.8144 50.8395 13.2405 50.4048 12.7335 50.0021L12.2899 49.6443L12.025 49.4241L11.7169 49.1591C11.5001 48.9651 11.3932 48.6939 11.4008 48.4241L11.4018 26.2456L11.4072 25.9609L11.4197 25.7443C11.4073 25.683 11.4008 25.6196 11.4008 25.5546C11.4008 23.2166 13.5775 21.2195 17.2006 19.7542L17.728 19.5485L18.2746 19.3502C18.3672 19.3177 18.4607 19.2856 18.5549 19.2538L19.1294 19.0667L19.7219 18.8873C19.9224 18.8288 20.1257 18.7716 20.332 18.7157L20.9591 18.5521C21.065 18.5255 21.1716 18.4992 21.2789 18.4732L21.9308 18.3217C22.0408 18.2971 22.1514 18.2729 22.2627 18.249L22.9383 18.1098L23.629 17.979L24.3344 17.8568L25.0541 17.7432L25.7875 17.6384C25.9109 17.6217 26.0348 17.6053 26.1593 17.5894L26.9125 17.498C27.1657 17.469 27.4209 17.4416 27.6783 17.4157L28.4561 17.3426L29.2457 17.2789C29.3782 17.2691 29.5112 17.2596 29.6447 17.2506L30.4508 17.2011L31.2673 17.1612C31.4043 17.1554 31.5416 17.15 31.6794 17.145L32.5107 17.1199L33.3513 17.1047C33.633 17.1013 33.9162 17.0996 34.2008 17.0996ZM13.3007 48.0144L13.6341 48.2888C14.1824 48.7335 14.8267 49.2271 15.5614 49.7555C17.6659 51.2688 20.0681 52.7523 22.7242 54.0932C32.0583 58.8052 42.0064 60.5917 52.0106 57.9819L52.4112 57.8762L53.1869 57.6648L53.9288 57.4534L54.6373 57.2418L55.3129 57.0302L55.9561 56.8187C56.0606 56.7834 56.1637 56.7481 56.2656 56.7129L56.8607 56.5014C57.1504 56.3957 57.4283 56.29 57.6946 56.1843L58.2119 55.9732L58.6988 55.7622C59.4065 55.4459 60.0129 55.1304 60.5245 54.8161L60.8515 54.6069C62.678 53.3873 63.0905 52.1896 62.4618 51.0464C61.9883 50.1856 60.9753 49.303 59.6391 48.4911C59.1973 48.2227 58.7493 47.9796 58.3158 47.7656C57.1873 49.2055 54.8112 50.4925 51.5287 51.4669L50.8651 51.6563C49.5144 52.0265 48.0244 52.3458 46.4164 52.604L45.6026 52.728L44.7698 52.8416L43.9185 52.9444C43.6318 52.9769 43.342 53.0075 43.0493 53.0362L42.1629 53.1168C41.1188 53.2041 40.0406 53.2677 38.9326 53.3058C38.4083 53.3239 37.9686 52.9134 37.9505 52.389C37.9325 51.8647 38.343 51.425 38.8673 51.4069C39.1725 51.3965 39.4752 51.3839 39.7752 51.3694L40.6675 51.32L41.5434 51.2591L42.4024 51.1871C42.6858 51.1613 42.9663 51.1337 43.2438 51.1044L44.0671 51.0114L44.8715 50.9086L45.6565 50.7962L46.4214 50.6748L47.1656 50.5447C47.8993 50.4103 48.6009 50.2635 49.2677 50.106L49.9228 49.9451L50.5541 49.7774L51.1608 49.6035C52.0523 49.338 52.859 49.0525 53.5714 48.7532L54.0323 48.5516C55.5212 47.8733 56.5339 47.1329 56.9654 46.3967L57.0283 46.2789L57.0426 45.995L57.0626 45.1714L57.0815 42.9789L57.0826 39.7301L57.0667 35.6798L57.0065 27.3292L56.9544 27.3688C56.8543 27.4414 56.753 27.5132 56.6498 27.5846L56.3327 27.7985C55.4898 28.3536 54.5386 28.8722 53.4225 29.3587C49.1694 31.2124 43.251 32.2996 35.1508 32.2996C27.0505 32.2996 21.1321 31.2124 16.8791 29.3587C15.7629 28.8722 14.8118 28.3536 13.9688 27.7985L13.6517 27.5846L13.2998 27.334L13.3007 48.0144Z" fill="#000091"/>
</svg>
