<svg width="80" height="80" viewBox="0 0 80 80" fill="none" xmlns="http://www.w3.org/2000/svg">
<path fill-rule="evenodd" clip-rule="evenodd" d="M17 7.99951C16.4486 7.99951 16 7.55091 16 6.99951C16 6.44806 16.4486 5.99951 17 5.99951C17.5514 5.99951 18 6.44806 18 6.99951C18 7.55091 17.5514 7.99951 17 7.99951Z" fill="#ECECFE"/>
<path fill-rule="evenodd" clip-rule="evenodd" d="M21 75.9995C20.4486 75.9995 20 75.5509 20 74.9995C20 74.4481 20.4486 73.9995 21 73.9995C21.5514 73.9995 22 74.4481 22 74.9995C22 75.5509 21.5514 75.9995 21 75.9995Z" fill="#ECECFE"/>
<path fill-rule="evenodd" clip-rule="evenodd" d="M63 73.9995C62.4486 73.9995 62 73.5509 62 72.9995C62 72.4481 62.4486 71.9995 63 71.9995C63.5514 71.9995 64 72.4481 64 72.9995C64 73.5509 63.5514 73.9995 63 73.9995Z" fill="#ECECFE"/>
<path fill-rule="evenodd" clip-rule="evenodd" d="M65 9.99951C64.4486 9.99951 64 9.55091 64 8.99951C64 8.44806 64.4486 7.99951 65 7.99951C65.5514 7.99951 66 8.44806 66 8.99951C66 9.55091 65.5514 9.99951 65 9.99951Z" fill="#ECECFE"/>
<path fill-rule="evenodd" clip-rule="evenodd" d="M41 79.9995C40.4486 79.9995 40 79.5509 40 78.9995C40 78.4481 40.4486 77.9995 41 77.9995C41.5514 77.9995 42 78.4481 42 78.9995C42 79.5509 41.5514 79.9995 41 79.9995Z" fill="#ECECFE"/>
<path fill-rule="evenodd" clip-rule="evenodd" d="M30 19.9995C30 18.3427 31.3431 16.9995 33 16.9995C34.6569 16.9995 36 18.3427 36 19.9995C36 21.6564 34.6569 22.9995 33 22.9995C31.3431 22.9995 30 21.6564 30 19.9995ZM34 19.9995C34 19.4472 33.5523 18.9995 33 18.9995C32.4477 18.9995 32 19.4472 32 19.9995C32 20.5518 32.4477 20.9995 33 20.9995C33.5523 20.9995 34 20.5518 34 19.9995Z" fill="#E1000F"/>
<path d="M33 20.9995C33.5128 20.9995 33.9355 21.3856 33.9933 21.8829L34 21.9995V25.9995C34 26.5518 33.5523 26.9995 33 26.9995C32.4872 26.9995 32.0645 26.6135 32.0067 26.1161L32 25.9995V21.9995C32 21.4472 32.4477 20.9995 33 20.9995Z" fill="#E1000F"/>
<path fill-rule="evenodd" clip-rule="evenodd" d="M52 43.9995C52 42.3427 53.3431 40.9995 55 40.9995C56.6569 40.9995 58 42.3427 58 43.9995C58 45.6564 56.6569 46.9995 55 46.9995C53.3431 46.9995 52 45.6564 52 43.9995ZM56 43.9995C56 43.4472 55.5523 42.9995 55 42.9995C54.4477 42.9995 54 43.4472 54 43.9995C54 44.5518 54.4477 44.9995 55 44.9995C55.5523 44.9995 56 44.5518 56 43.9995Z" fill="#E1000F"/>
<path d="M55 44.9995C55.5128 44.9995 55.9355 45.3856 55.9933 45.8829L56 45.9995V49.9995C56 50.5518 55.5523 50.9995 55 50.9995C54.4872 50.9995 54.0645 50.6135 54.0067 50.1161L54 49.9995V45.9995C54 45.4472 54.4477 44.9995 55 44.9995Z" fill="#E1000F"/>
<path fill-rule="evenodd" clip-rule="evenodd" d="M23 49.9995C23 48.3427 24.3431 46.9995 26 46.9995C27.6569 46.9995 29 48.3427 29 49.9995C29 51.6564 27.6569 52.9995 26 52.9995C24.3431 52.9995 23 51.6564 23 49.9995ZM27 49.9995C27 49.4472 26.5523 48.9995 26 48.9995C25.4477 48.9995 25 49.4472 25 49.9995C25 50.5518 25.4477 50.9995 26 50.9995C26.5523 50.9995 27 50.5518 27 49.9995Z" fill="#E1000F"/>
<path d="M26 50.9995C26.5128 50.9995 26.9355 51.3856 26.9933 51.8829L27 51.9995V55.9995C27 56.5518 26.5523 56.9995 26 56.9995C25.4872 56.9995 25.0645 56.6135 25.0067 56.1161L25 55.9995V51.9995C25 51.4472 25.4477 50.9995 26 50.9995Z" fill="#E1000F"/>
<path d="M25 18.9995C25.5523 18.9995 26 19.4473 26 19.9995C26 20.5124 25.614 20.935 25.1166 20.9928L25 20.9995H19C18.4477 20.9995 18 20.5518 18 19.9995C18 19.4867 18.386 19.064 18.8834 19.0063L19 18.9995H25Z" fill="#000091"/>
<path d="M71 18.9995C71.5128 18.9995 71.9355 19.3856 71.9933 19.8829L72 19.9995V61.9995C72 62.5124 71.614 62.935 71.1166 62.9928L71 62.9995H31C30.4477 62.9995 30 62.5518 30 61.9995C30 61.4867 30.386 61.064 30.8834 61.0063L31 60.9995H70V20.9995H41C40.4872 20.9995 40.0645 20.6135 40.0067 20.1162L40 19.9995C40 19.4867 40.386 19.064 40.8834 19.0063L41 18.9995H71Z" fill="#000091"/>
<path fill-rule="evenodd" clip-rule="evenodd" d="M17.05 17.1336L14.0167 17.083L13.7948 17.0834C10.6276 17.1473 8.05405 19.7079 8.00082 22.9016L8 55.9995L8.00673 56.1162C8.01117 56.1544 8.01777 56.192 8.02641 56.2288L8.031 56.2465L8.01414 56.4963C8.00472 56.6606 8 56.8284 8 56.9995C8 60.5773 9.95515 62.6721 13.5777 62.9956L23 62.9995L23.1166 62.9928C23.614 62.935 24 62.5124 24 61.9995C24 61.4473 23.5523 60.9995 23 60.9995H13.6667L13.4279 60.9743C11.0826 60.6901 10 59.4511 10 56.9995C10 54.483 11.2509 53.2321 14.083 52.9961L17 52.9995L17.1763 52.9944C18.7511 52.9032 20 51.5972 20 49.9995V20.1331L19.995 19.9589C19.9058 18.4021 18.6287 17.1599 17.05 17.1336ZM10.009 22.7334C10.1484 20.6653 11.8874 19.0478 13.9833 19.0827L17.0167 19.1333L17.1318 19.1418C17.6227 19.2065 18 19.6263 18 20.1331V49.9995L17.9933 50.1162C17.9355 50.6135 17.5128 50.9995 17 50.9995H14L13.7233 51.0256C12.2642 51.1805 11.0723 51.5899 10.1613 52.2401L10 52.3595L10.0005 22.9349L10.009 22.7334Z" fill="#000091"/>
<path fill-rule="evenodd" clip-rule="evenodd" d="M19 40.9995H19.4131C19.9654 40.9995 20.4131 41.4473 20.4131 41.9995C20.4131 42.5518 19.9654 42.9995 19.4131 42.9995H19C18.4477 42.9995 18 42.5518 18 41.9995C18 41.4473 18.4477 40.9995 19 40.9995ZM25.4131 40.9995H22.4131C21.8608 40.9995 21.4131 41.4473 21.4131 41.9995C21.4131 42.5518 21.8608 42.9995 22.4131 42.9995H25.4131C25.9654 42.9995 26.4131 42.5518 26.4131 41.9995C26.4131 41.4473 25.9654 40.9995 25.4131 40.9995ZM31.8192 41.4261L32.0561 41.7645C32.3729 42.217 32.2628 42.8405 31.8104 43.1572C31.3579 43.4739 30.7344 43.3639 30.4177 42.9114L28.4131 42.9995C27.8608 42.9995 27.4131 42.5518 27.4131 41.9995C27.4131 41.4473 27.8608 40.9995 28.4131 40.9995H31C31.3263 40.9995 31.6321 41.1587 31.8192 41.4261ZM35.4969 46.6799L33.7765 44.2222C33.4598 43.7698 32.8363 43.6597 32.3838 43.9764C31.9314 44.2931 31.8213 44.9167 32.1381 45.3691L33.8584 47.8268C34.1752 48.2793 34.7987 48.3893 35.2511 48.0726C35.7036 47.7559 35.8136 47.1323 35.4969 46.6799ZM37.2173 49.1376L38.9377 51.5953C39.2544 52.0477 39.1444 52.6713 38.6919 52.988C38.2395 53.3047 37.6159 53.1947 37.2992 52.7422L35.5788 50.2845C35.2621 49.8321 35.3722 49.2085 35.8246 48.8918C36.2771 48.5751 36.9006 48.6851 37.2173 49.1376ZM42.3785 56.5107L40.6581 54.053C40.3414 53.6005 39.7178 53.4905 39.2654 53.8072C38.8129 54.1239 38.7029 54.7475 39.0196 55.1999L40.74 57.6576C41.0567 58.1101 41.6802 58.2201 42.1327 57.9034C42.5851 57.5867 42.6952 56.9631 42.3785 56.5107ZM45.8192 61.4261L44.0988 58.9684C43.7821 58.5159 43.1586 58.4059 42.7062 58.7226C42.2537 59.0393 42.1437 59.6629 42.4604 60.1153L44.1808 62.573C44.4975 63.0254 45.121 63.1355 45.5735 62.8188C46.0259 62.5021 46.1359 61.8785 45.8192 61.4261Z" fill="#000091"/>
<path fill-rule="evenodd" clip-rule="evenodd" d="M41.5869 42.9995C42.1392 42.9995 42.5869 42.5518 42.5869 41.9995C42.5869 41.4473 42.1392 40.9995 41.5869 40.9995H39C38.191 40.9995 37.7168 41.9102 38.1808 42.573L38.4177 42.9114C38.7344 43.3639 39.3579 43.4739 39.8104 43.1572C40.2628 42.8405 41.5869 42.9995 41.5869 42.9995ZM41.7765 44.2222L43.4969 46.6799C43.8136 47.1323 43.7036 47.7559 43.2511 48.0726C42.7987 48.3893 42.1752 48.2793 41.8584 47.8268L40.1381 45.3691C39.8213 44.9167 39.9314 44.2931 40.3838 43.9764C40.8363 43.6597 41.4598 43.7698 41.7765 44.2222ZM46.9377 51.5953L45.2173 49.1376C44.9006 48.6851 44.2771 48.5751 43.8246 48.8918C43.3722 49.2085 43.2621 49.8321 43.5788 50.2845L45.2992 52.7422C45.6159 53.1947 46.2395 53.3047 46.6919 52.988C47.1444 52.6713 47.2544 52.0477 46.9377 51.5953ZM48.6581 54.053L50.3785 56.5107C50.6952 56.9631 50.5851 57.5867 50.1327 57.9034C49.6802 58.2201 49.0567 58.1101 48.74 57.6576L47.0196 55.1999C46.7029 54.7475 46.8129 54.1239 47.2654 53.8072C47.7178 53.4905 48.3414 53.6005 48.6581 54.053ZM52.0988 58.9684L53.8192 61.4261C54.1359 61.8785 54.0259 62.5021 53.5735 62.8188C53.121 63.1355 52.4975 63.0254 52.1808 62.573L50.4604 60.1153C50.1437 59.6629 50.2537 59.0393 50.7062 58.7226C51.1586 58.4059 51.7821 58.5159 52.0988 58.9684ZM47.5869 42.9995H44.5869C44.0346 42.9995 43.5869 42.5518 43.5869 41.9995C43.5869 41.4473 44.0346 40.9995 44.5869 40.9995H47.5869C48.1392 40.9995 48.5869 41.4473 48.5869 41.9995C48.5869 42.5518 48.1392 42.9995 47.5869 42.9995Z" fill="#000091"/>
<path fill-rule="evenodd" clip-rule="evenodd" d="M66 42.9995H63C62.4477 42.9995 62 42.5518 62 41.9995C62 41.4473 62.4477 40.9995 63 40.9995H66C66.5523 40.9995 67 41.4473 67 41.9995C67 42.5518 66.5523 42.9995 66 42.9995ZM71 42.9995H69C68.4477 42.9995 68 42.5518 68 41.9995C68 41.4473 68.4477 40.9995 69 40.9995H71C71.5523 40.9995 72 41.4473 72 41.9995C72 42.5518 71.5523 42.9995 71 42.9995Z" fill="#000091"/>
<path fill-rule="evenodd" clip-rule="evenodd" d="M50 19.9995V21.9995C50 22.5518 49.5523 22.9995 49 22.9995C48.4477 22.9995 48 22.5518 48 21.9995V19.9995C48 19.4473 48.4477 18.9995 49 18.9995C49.5523 18.9995 50 19.4473 50 19.9995ZM50 27.9995V24.9995C50 24.4473 49.5523 23.9995 49 23.9995C48.4477 23.9995 48 24.4473 48 24.9995V27.9995C48 28.5518 48.4477 28.9995 49 28.9995C49.5523 28.9995 50 28.5518 50 27.9995ZM50 30.9995V33.9995C50 34.5518 49.5523 34.9995 49 34.9995C48.4477 34.9995 48 34.5518 48 33.9995V30.9995C48 30.4473 48.4477 29.9995 49 29.9995C49.5523 29.9995 50 30.4473 50 30.9995ZM22 34.9995H19C18.4477 34.9995 18 34.5518 18 33.9995C18 33.4473 18.4477 32.9995 19 32.9995H22C22.5523 32.9995 23 33.4473 23 33.9995C23 34.5518 22.5523 34.9995 22 34.9995ZM28 34.9995H25C24.4477 34.9995 24 34.5518 24 33.9995C24 33.4473 24.4477 32.9995 25 32.9995H28C28.5523 32.9995 29 33.4473 29 33.9995C29 34.5518 28.5523 34.9995 28 34.9995ZM31 34.9995H34C34.5523 34.9995 35 34.5518 35 33.9995C35 33.4473 34.5523 32.9995 34 32.9995H31C30.4477 32.9995 30 33.4473 30 33.9995C30 34.5518 30.4477 34.9995 31 34.9995ZM40 34.9995H37C36.4477 34.9995 36 34.5518 36 33.9995C36 33.4473 36.4477 32.9995 37 32.9995H40C40.5523 32.9995 41 33.4473 41 33.9995C41 34.5518 40.5523 34.9995 40 34.9995ZM43 34.9995H46C46.5523 34.9995 47 34.5518 47 33.9995C47 33.4473 46.5523 32.9995 46 32.9995H43C42.4477 32.9995 42 33.4473 42 33.9995C42 34.5518 42.4477 34.9995 43 34.9995Z" fill="#000091"/>
<path fill-rule="evenodd" clip-rule="evenodd" d="M46 26.9995H43C42.4477 26.9995 42 26.5518 42 25.9995C42 25.4473 42.4477 24.9995 43 24.9995H46C46.5523 24.9995 47 25.4473 47 25.9995C47 26.5518 46.5523 26.9995 46 26.9995ZM42 26.9995V29.9995C42 30.5518 41.5523 30.9995 41 30.9995C40.4477 30.9995 40 30.5518 40 29.9995V26.9995C40 26.4473 40.4477 25.9995 41 25.9995C41.5523 25.9995 42 26.4473 42 26.9995Z" fill="#000091"/>
<path fill-rule="evenodd" clip-rule="evenodd" d="M72 22.9995C72 23.5518 71.5523 23.9995 71 23.9995C70.4477 23.9995 70 23.5518 70 22.9995V20.9995C70.5523 20.9995 71 20.5518 71 19.9995C71 19.6294 70.7989 19.3062 70.5 19.1333C70.6471 19.0482 70.8179 18.9995 71 18.9995C71.5523 18.9995 72 19.4473 72 19.9995V22.9995ZM70.5 19.1333C70.3529 19.0482 70.1821 18.9995 70 18.9995H67C66.4477 18.9995 66 19.4473 66 19.9995C66 20.5518 66.4477 20.9995 67 20.9995H70V19.9995C70 19.6294 70.2011 19.3062 70.5 19.1333ZM72 28.9995C72 29.5518 71.5523 29.9995 71 29.9995C70.4477 29.9995 70 29.5518 70 28.9995V25.9995C70 25.4473 70.4477 24.9995 71 24.9995C71.5523 24.9995 72 25.4473 72 25.9995V28.9995ZM69 33.9995C69 34.5518 69.4477 34.9995 70 34.9995H71C71.5523 34.9995 72 34.5518 72 33.9995V31.9995C72 31.4473 71.5523 30.9995 71 30.9995C70.4477 30.9995 70 31.4473 70 31.9995V32.9995C69.4477 32.9995 69 33.4473 69 33.9995ZM64 34.9995C63.4477 34.9995 63 34.5518 63 33.9995C63 33.4473 63.4477 32.9995 64 32.9995H67C67.5523 32.9995 68 33.4473 68 33.9995C68 34.5518 67.5523 34.9995 67 34.9995H64ZM59 31.9995C58.4477 31.9995 58 32.4473 58 32.9995V33.9995C58 34.5518 58.4477 34.9995 59 34.9995H61C61.5523 34.9995 62 34.5518 62 33.9995C62 33.4473 61.5523 32.9995 61 32.9995H60C60 32.4473 59.5523 31.9995 59 31.9995ZM58 26.9995C58 26.4473 58.4477 25.9995 59 25.9995C59.5523 25.9995 60 26.4473 60 26.9995V29.9995C60 30.5518 59.5523 30.9995 59 30.9995C58.4477 30.9995 58 30.5518 58 29.9995V26.9995ZM59 19.9995C58.4477 19.9995 58 20.4473 58 20.9995V23.9995C58 24.5518 58.4477 24.9995 59 24.9995C59.5523 24.9995 60 24.5518 60 23.9995V20.9995C60 20.4473 59.5523 19.9995 59 19.9995ZM64 18.9995C64.5523 18.9995 65 19.4473 65 19.9995C65 20.5518 64.5523 20.9995 64 20.9995H61C60.4477 20.9995 60 20.5518 60 19.9995C60 19.4473 60.4477 18.9995 61 18.9995H64Z" fill="#000091"/>
</svg>
