<svg width="40" height="42" viewBox="0 0 40 42" fill="none" xmlns="http://www.w3.org/2000/svg">
<g id="national-identity-card">
<g id="&#240;&#159;&#145;&#129;&#239;&#184;&#143; Masquer si besoin - D&#195;&#169;corative">
<path id="Path" fill-rule="evenodd" clip-rule="evenodd" d="M5.625 1.99805C5.28037 1.99805 5 1.71767 5 1.37305C5 1.02839 5.28037 0.748047 5.625 0.748047C5.96963 0.748047 6.25 1.02839 6.25 1.37305C6.25 1.71767 5.96963 1.99805 5.625 1.99805Z" fill="#ECECFE"/>
<path id="Path_2" fill-rule="evenodd" clip-rule="evenodd" d="M4.375 41.998C4.03037 41.998 3.75 41.7177 3.75 41.373C3.75 41.0284 4.03037 40.748 4.375 40.748C4.71963 40.748 5 41.0284 5 41.373C5 41.7177 4.71963 41.998 4.375 41.998Z" fill="#ECECFE"/>
<path id="Path_3" fill-rule="evenodd" clip-rule="evenodd" d="M35.625 41.998C35.2804 41.998 35 41.7177 35 41.373C35 41.0284 35.2804 40.748 35.625 40.748C35.9696 40.748 36.25 41.0284 36.25 41.373C36.25 41.7177 35.9696 41.998 35.625 41.998Z" fill="#ECECFE"/>
<path id="Path_4" fill-rule="evenodd" clip-rule="evenodd" d="M35.625 3.24805C35.2804 3.24805 35 2.96767 35 2.62305C35 2.27839 35.2804 1.99805 35.625 1.99805C35.9696 1.99805 36.25 2.27839 36.25 2.62305C36.25 2.96767 35.9696 3.24805 35.625 3.24805Z" fill="#ECECFE"/>
</g>
<g id="&#240;&#159;&#142;&#168; Mineure (indice -main)">
<path fill-rule="evenodd" clip-rule="evenodd" d="M14.6273 21.1623C16.2727 21.8389 17.4356 23.2778 17.4974 24.9801L17.5 25.123H16.25C16.25 23.4204 14.5906 21.998 12.5 21.998C10.4592 21.998 8.82926 23.3535 8.75281 25.0019L8.75 25.123H7.5C7.5 23.3586 8.6814 21.8577 10.3727 21.1623C9.75897 20.5916 9.375 19.7772 9.375 18.873C9.375 17.1472 10.7741 15.748 12.5 15.748C14.2259 15.748 15.625 17.1472 15.625 18.873C15.625 19.7772 15.241 20.5916 14.6273 21.1623ZM12.5 20.748C13.5355 20.748 14.375 19.9086 14.375 18.873C14.375 17.8375 13.5355 16.998 12.5 16.998C11.4645 16.998 10.625 17.8375 10.625 18.873C10.625 19.9086 11.4645 20.748 12.5 20.748Z" fill="#E1000F"/>
<path fill-rule="evenodd" clip-rule="evenodd" d="M6.875 11.998H18.125C19.1605 11.998 20 12.8375 20 13.873V26.373C20 27.4086 19.1605 28.248 18.125 28.248H6.875C5.83947 28.248 5 27.4086 5 26.373V13.873C5 12.8375 5.83947 11.998 6.875 11.998ZM18.125 13.248H6.875C6.52982 13.248 6.25 13.5279 6.25 13.873V26.373C6.25 26.7182 6.52982 26.998 6.875 26.998H18.125C18.4702 26.998 18.75 26.7182 18.75 26.373V13.873C18.75 13.5279 18.4702 13.248 18.125 13.248Z" fill="#E1000F"/>
</g>
<g id="Majeure">
<path d="M0.00287792 34.0116C0.0717126 35.6656 1.36687 36.998 2.97348 36.998H4.375L4.44789 36.9938C4.75872 36.9577 5 36.6936 5 36.373L4.9958 36.3002C4.95969 35.9893 4.69552 35.748 4.375 35.748H2.97348L2.87312 35.7449C1.9759 35.6884 1.25 34.8797 1.25 33.873V10.123L1.25296 10.012C1.30597 9.02078 2.06434 8.24805 2.97348 8.24805H30.625L30.6979 8.24384C31.0087 8.20774 31.25 7.94357 31.25 7.62305C31.25 7.27787 30.9702 6.99805 30.625 6.99805H2.97348L2.84034 7.00111C1.25173 7.07436 0 8.45201 0 10.123V33.873L0.00287792 34.0116Z" fill="#000091"/>
<path d="M39.9971 9.98449C39.9283 8.33053 38.6331 6.99805 37.0265 6.99805H34.375L34.3021 7.00225C33.9913 7.03835 33.75 7.30252 33.75 7.62305C33.75 7.96822 34.0298 8.24805 34.375 8.24805H37.0265L37.1269 8.2512C38.0241 8.30768 38.75 9.11636 38.75 10.123V33.873L38.747 33.9841C38.694 34.9753 37.9357 35.748 37.0265 35.748H19.375L19.3021 35.7523C18.9913 35.7884 18.75 36.0525 18.75 36.373C18.75 36.7182 19.0298 36.998 19.375 36.998H37.0265L37.1597 36.995C38.7483 36.9217 40 35.5441 40 33.873V10.123L39.9971 9.98449Z" fill="#000091"/>
<path d="M16.875 31.998C17.2202 31.998 17.5 32.2779 17.5 32.623C17.5 32.9436 17.2587 33.2077 16.9479 33.2438L16.875 33.248H4.375C4.02982 33.248 3.75 32.9682 3.75 32.623C3.75 32.3025 3.99128 32.0384 4.30211 32.0023L4.375 31.998H16.875Z" fill="#000091"/>
<path d="M30 32.623C30 32.2779 29.7202 31.998 29.375 31.998H28.125L28.0521 32.0023C27.7413 32.0384 27.5 32.3025 27.5 32.623C27.5 32.9682 27.7798 33.248 28.125 33.248H29.375L29.4479 33.2438C29.7587 33.2077 30 32.9436 30 32.623Z" fill="#000091"/>
<path d="M35.625 31.998C35.9702 31.998 36.25 32.2779 36.25 32.623C36.25 32.9436 36.0087 33.2077 35.6979 33.2438L35.625 33.248H31.875C31.5298 33.248 31.25 32.9682 31.25 32.623C31.25 32.3025 31.4913 32.0384 31.8021 32.0023L31.875 31.998H35.625Z" fill="#000091"/>
<path d="M18.75 32.623C18.75 32.9677 19.0304 33.248 19.375 33.248C19.7196 33.248 20 32.9677 20 32.623C20 32.2784 19.7196 31.998 19.375 31.998C19.0304 31.998 18.75 32.2784 18.75 32.623Z" fill="#000091"/>
<path d="M21.875 33.248C21.5304 33.248 21.25 32.9677 21.25 32.623C21.25 32.2784 21.5304 31.998 21.875 31.998C22.2196 31.998 22.5 32.2784 22.5 32.623C22.5 32.9677 22.2196 33.248 21.875 33.248Z" fill="#000091"/>
<path d="M35 12.623C35 12.2779 34.7202 11.998 34.375 11.998H23.125L23.0521 12.0023C22.7413 12.0384 22.5 12.3025 22.5 12.623C22.5 12.9682 22.7798 13.248 23.125 13.248H34.375L34.4479 13.2438C34.7587 13.2077 35 12.9436 35 12.623Z" fill="#000091"/>
<path d="M28.125 14.498C28.4702 14.498 28.75 14.7779 28.75 15.123C28.75 15.4436 28.5087 15.7077 28.1979 15.7438L28.125 15.748H23.125C22.7798 15.748 22.5 15.4682 22.5 15.123C22.5 14.8025 22.7413 14.5384 23.0521 14.5023L23.125 14.498H28.125Z" fill="#000091"/>
<path d="M30 15.123C30 15.4677 30.2804 15.748 30.625 15.748C30.9696 15.748 31.25 15.4677 31.25 15.123C31.25 14.7784 30.9696 14.498 30.625 14.498C30.2804 14.498 30 14.7784 30 15.123Z" fill="#000091"/>
<path d="M30.625 16.998C30.9702 16.998 31.25 17.2779 31.25 17.623C31.25 17.9436 31.0087 18.2077 30.6979 18.2438L30.625 18.248H23.125C22.7798 18.248 22.5 17.9682 22.5 17.623C22.5 17.3025 22.7413 17.0384 23.0521 17.0023L23.125 16.998H30.625Z" fill="#000091"/>
<path fill-rule="evenodd" clip-rule="evenodd" d="M24.6875 20.748C23.4794 20.748 22.5 21.7274 22.5 22.9355C22.5 24.1437 23.4794 25.123 24.6875 25.123C25.8956 25.123 26.875 24.1437 26.875 22.9355C26.875 21.7274 25.8956 20.748 24.6875 20.748ZM24.6875 21.998C25.2053 21.998 25.625 22.4178 25.625 22.9355C25.625 23.4533 25.2053 23.873 24.6875 23.873C24.1697 23.873 23.75 23.4533 23.75 22.9355C23.75 22.4178 24.1697 21.998 24.6875 21.998Z" fill="#000091"/>
<path d="M34.375 26.998C34.7202 26.998 35 27.2779 35 27.623C35 27.9436 34.7587 28.2077 34.4479 28.2438L34.375 28.248H23.125C22.7798 28.248 22.5 27.9682 22.5 27.623C22.5 27.3025 22.7413 27.0384 23.0521 27.0023L23.125 26.998H34.375Z" fill="#000091"/>
<path d="M26.25 32.623C26.25 32.2779 25.9702 31.998 25.625 31.998H24.375L24.3021 32.0023C23.9913 32.0384 23.75 32.3025 23.75 32.623C23.75 32.9682 24.0298 33.248 24.375 33.248H25.625L25.6979 33.2438C26.0087 33.2077 26.25 32.9436 26.25 32.623Z" fill="#000091"/>
</g>
</g>
</svg>
