<svg width="30" height="55" viewBox="0 0 30 55" fill="none" xmlns="http://www.w3.org/2000/svg">
<g id="sign-document">
<path id="&#240;&#159;&#142;&#168; Mineure (indice -main)" fill-rule="evenodd" clip-rule="evenodd" d="M20.9213 36.1641C22.1866 36.1641 22.9344 36.9119 22.9344 38.1772C22.9344 38.2321 22.9277 38.2867 22.9144 38.34C22.5753 39.6964 21.0674 40.578 18.3768 41.0641L17.9421 41.1376C17.794 41.161 17.6425 41.1833 17.4878 41.2045L17.0138 41.2651C16.9331 41.2746 16.8517 41.2839 16.7694 41.293L16.2658 41.344L15.7425 41.3887L15.1995 41.4273L14.6368 41.4597C14.5413 41.4646 14.4451 41.4693 14.348 41.4737L13.7556 41.497L13.1435 41.5145L12.5115 41.526L11.5265 41.5325C11.1559 41.5325 10.8555 41.232 10.8555 40.8614C10.8555 40.4908 11.1559 40.1904 11.5265 40.1904L12.164 40.1875C12.2686 40.1865 12.3722 40.1853 12.475 40.1839L13.0816 40.1724L13.6676 40.1553L14.2329 40.1326L14.7775 40.1045L15.3015 40.0711L15.8048 40.0323L16.2874 39.9884C16.3661 39.9806 16.4439 39.9726 16.5209 39.9645L16.9724 39.9129C17.193 39.8858 17.4057 39.8569 17.6107 39.8262L18.0104 39.7623L18.3892 39.6936L18.7472 39.6203C20.3695 39.2671 21.3121 38.7635 21.568 38.148L21.5903 38.0866L21.5858 38.0075C21.5547 37.6464 21.4056 37.5226 21.0099 37.5077L20.9213 37.5062C20.2242 37.5062 19.4901 37.8732 18.7116 38.6517C18.3072 39.0561 17.6283 38.7997 17.57 38.2535L17.566 38.1772C17.566 37.6531 17.4191 37.5062 16.8949 37.5062C16.1979 37.5062 15.4637 37.8732 14.6852 38.6517C14.4232 38.9138 13.9983 38.9138 13.7362 38.6517C13.4742 38.3897 13.4742 37.9648 13.7362 37.7027C14.7472 36.6917 15.8026 36.1641 16.8949 36.1641C17.6632 36.1641 18.2407 36.4397 18.5758 36.9395L18.6021 36.9821L18.7334 36.8909C19.3891 36.448 20.0616 36.2034 20.7491 36.1684L20.9213 36.1641Z" fill="#E1000F"/>
<g id="Majeure">
<path d="M15.5534 12.0068C15.924 12.0068 16.2244 12.3072 16.2244 12.6778C16.2244 13.022 15.9654 13.3056 15.6316 13.3444L15.5534 13.3489H4.81651C4.4459 13.3489 4.14546 13.0484 4.14546 12.6778C4.14546 12.3337 4.40451 12.0501 4.73825 12.0113L4.81651 12.0068H15.5534Z" fill="#000091"/>
<path d="M22.9349 16.7042C22.9349 16.3335 22.6345 16.0331 22.2639 16.0331H4.81651L4.73825 16.0376C4.40451 16.0764 4.14546 16.36 4.14546 16.7042C4.14546 17.0748 4.4459 17.3752 4.81651 17.3752H22.2639L22.3421 17.3707C22.6759 17.3319 22.9349 17.0483 22.9349 16.7042Z" fill="#000091"/>
<path d="M18.2376 20.0594C18.6082 20.0594 18.9086 20.3599 18.9086 20.7305C18.9086 21.0746 18.6496 21.3582 18.3158 21.397L18.2376 21.4015H4.81651C4.4459 21.4015 4.14546 21.1011 4.14546 20.7305C4.14546 20.3863 4.40451 20.1027 4.73825 20.0639L4.81651 20.0594H18.2376Z" fill="#000091"/>
<path d="M22.9349 24.7568C22.9349 24.3862 22.6345 24.0857 22.2639 24.0857H4.81651L4.73825 24.0902C4.40451 24.129 4.14546 24.4126 4.14546 24.7568C4.14546 25.1274 4.4459 25.4278 4.81651 25.4278H22.2639L22.3421 25.4233C22.6759 25.3846 22.9349 25.1009 22.9349 24.7568Z" fill="#000091"/>
<path d="M18.9086 28.7831C18.9086 28.4125 18.6082 28.112 18.2376 28.112H4.81651L4.73825 28.1166C4.40451 28.1553 4.14546 28.439 4.14546 28.7831C4.14546 29.1537 4.4459 29.4542 4.81651 29.4542H18.2376L18.3158 29.4496C18.6496 29.4109 18.9086 29.1272 18.9086 28.7831Z" fill="#000091"/>
<path fill-rule="evenodd" clip-rule="evenodd" d="M0.790193 7.98047H26.2902C26.6608 7.98047 26.9612 8.28091 26.9612 8.65152V44.8884C26.9612 45.259 26.6608 45.5594 26.2902 45.5594H0.790193C0.419581 45.5594 0.119141 45.259 0.119141 44.8884V8.65152C0.119141 8.28091 0.419581 7.98047 0.790193 7.98047ZM25.6191 44.2173V9.32257H1.46125V44.2173H25.6191Z" fill="#000091"/>
<path d="M28.9744 13.3489C29.3185 13.3489 29.6022 13.6079 29.6409 13.9417L29.6455 14.0199V47.5726C29.6455 47.9167 29.3864 48.2004 29.0527 48.2391L28.9744 48.2436H6.15861C5.788 48.2436 5.48756 47.9432 5.48756 47.5726C5.48756 47.2284 5.74662 46.9448 6.08036 46.906L6.15861 46.9015H28.3034V14.0199C28.3034 13.6758 28.5624 13.3922 28.8961 13.3534L28.9744 13.3489Z" fill="#000091"/>
</g>
</g>
</svg>
