<svg width="120" height="120" viewBox="0 0 120 120" fill="none" xmlns="http://www.w3.org/2000/svg">
<path fill-rule="evenodd" clip-rule="evenodd" d="M102 19.4995C101.173 19.4995 100.5 18.8266 100.5 17.9995C100.5 17.1723 101.173 16.4995 102 16.4995C102.827 16.4995 103.5 17.1723 103.5 17.9995C103.5 18.8266 102.827 19.4995 102 19.4995Z" fill="#ECECFE"/>
<path fill-rule="evenodd" clip-rule="evenodd" d="M61.5 114C60.6729 114 60 113.327 60 112.5C60 111.672 60.6729 111 61.5 111C62.3271 111 63 111.672 63 112.5C63 113.327 62.3271 114 61.5 114Z" fill="#ECECFE"/>
<path fill-rule="evenodd" clip-rule="evenodd" d="M22.5 14.9995C21.6729 14.9995 21 14.3266 21 13.4995C21 12.6723 21.6729 11.9995 22.5 11.9995C23.3271 11.9995 24 12.6723 24 13.4995C24 14.3266 23.3271 14.9995 22.5 14.9995Z" fill="#ECECFE"/>
<path fill-rule="evenodd" clip-rule="evenodd" d="M56.0085 69.868L46.4353 58.5514L46.2516 58.3538C45.1075 57.2484 43.3721 57.2283 42.2301 58.2948C41.0246 59.4206 40.917 61.3428 41.9858 62.6061L54.2799 77.137C54.3583 77.2296 54.444 77.3157 54.5362 77.3945C55.4811 78.2016 56.9013 78.0899 57.7084 77.145L84.0049 46.3602L84.171 46.1464C85.0685 44.8554 84.8981 43.1017 83.7804 42.0478C82.5592 40.8964 80.6672 41.0039 79.574 42.2837L56.0085 69.868Z" fill="#E1000F"/>
<path d="M17.1603 67.553C12.9885 43.8936 28.7864 21.332 52.4458 17.1602C67.4773 14.5097 82.5432 19.9016 92.51 31.0886C93.061 31.7072 93.0063 32.6554 92.3878 33.2064C91.7692 33.7575 90.8211 33.7028 90.27 33.0843C80.9881 22.6659 66.9632 17.6466 52.9667 20.1146C30.939 23.9987 16.2307 45.0043 20.1147 67.0321C23.9988 89.0598 45.0045 103.768 67.0322 99.884C89.0599 95.9999 103.768 74.9943 99.8842 52.9666C99.7403 52.1507 100.285 51.3727 101.101 51.2289C101.917 51.085 102.695 51.6298 102.839 52.4456C107.01 76.105 91.2126 98.6667 67.5532 102.838C43.8938 107.01 21.3321 91.2124 17.1603 67.553Z" fill="#000091"/>
<path d="M105.335 70.3858C105.52 69.5781 106.324 69.0727 107.131 69.257C107.939 69.4412 108.445 70.2453 108.26 71.053C106.243 79.8974 101.823 87.9747 95.5387 94.4553C94.962 95.05 94.0124 95.0646 93.4176 94.4879C92.8229 93.9112 92.8083 92.9616 93.385 92.3668C99.2894 86.2779 103.441 78.6912 105.335 70.3858Z" fill="#000091"/>
<path d="M107.999 62.9993C107.171 62.9993 106.499 63.6709 106.499 64.4993C106.499 65.3277 107.171 65.9993 107.999 65.9993C108.828 65.9993 109.499 65.3277 109.499 64.4993C109.499 63.6709 108.828 62.9993 107.999 62.9993Z" fill="#000091"/>
</svg>
