<svg width="33" height="52" viewBox="0 0 33 52" fill="none" xmlns="http://www.w3.org/2000/svg">
<g id="vehicle-registration-document">
<g id="&#240;&#159;&#142;&#168; Mineure (indice -main)">
<path fill-rule="evenodd" clip-rule="evenodd" d="M26.5114 8.9585C25.0877 8.9585 23.9336 10.1046 23.9336 11.5185C23.9336 12.9323 25.0877 14.0785 26.5114 14.0785C27.9351 14.0785 29.0892 12.9323 29.0892 11.5185C29.0892 10.1046 27.9351 8.9585 26.5114 8.9585ZM26.5114 10.2385C27.2232 10.2385 27.8003 10.8116 27.8003 11.5185C27.8003 12.2254 27.2232 12.7985 26.5114 12.7985C25.7996 12.7985 25.2225 12.2254 25.2225 11.5185C25.2225 10.8116 25.7996 10.2385 26.5114 10.2385Z" fill="#E1000F"/>
<path d="M10.4003 19.1985C10.0444 19.1985 9.75586 19.485 9.75586 19.8385C9.75586 20.192 10.0444 20.4785 10.4003 20.4785C10.7562 20.4785 11.0447 20.192 11.0447 19.8385C11.0447 19.485 10.7562 19.1985 10.4003 19.1985Z" fill="#E1000F"/>
<path d="M17.4892 19.8385C17.4892 19.485 17.7777 19.1985 18.1336 19.1985C18.4896 19.1985 18.7781 19.485 18.7781 19.8385C18.7781 20.192 18.4896 20.4785 18.1336 20.4785C17.7777 20.4785 17.4892 20.192 17.4892 19.8385Z" fill="#E1000F"/>
</g>
<path id="Majeure" fill-rule="evenodd" clip-rule="evenodd" d="M29.7324 5.11865C31.4652 5.11865 32.8785 6.47693 32.9517 8.17984L32.9546 8.31865V41.5987C32.9546 41.9521 32.6661 42.2387 32.3102 42.2387C31.9797 42.2387 31.7073 41.9916 31.6701 41.6733L31.6658 41.5987V8.31865C31.6658 7.29614 30.8609 6.46031 29.846 6.40191L29.7324 6.39865H3.95464C2.92503 6.39865 2.0834 7.19796 2.02459 8.20584L2.02131 8.31865V42.8787C2.02131 43.9012 2.82617 44.737 3.84105 44.7954L3.95464 44.7987H15.5546C15.9106 44.7987 16.1991 45.0852 16.1991 45.4387C16.1991 45.7669 15.9503 46.0374 15.6298 46.0743L15.5546 46.0787H3.95464C2.22189 46.0787 0.808584 44.7204 0.735399 43.0175L0.732422 42.8787V8.31865C0.732422 6.59785 2.10013 5.19429 3.81487 5.12161L3.95464 5.11865H29.7324ZM23.288 44.7987C23.6439 44.7987 23.9324 45.0852 23.9324 45.4387C23.9324 45.7669 23.6836 46.0374 23.3631 46.0743L23.288 46.0787H18.1324C17.7765 46.0787 17.488 45.7921 17.488 45.4387C17.488 45.1104 17.7368 44.8399 18.0573 44.803L18.1324 44.7987H23.288ZM25.8658 44.7987C26.2217 44.7987 26.5102 45.0852 26.5102 45.4387C26.5102 45.7921 26.2217 46.0787 25.8658 46.0787C25.5098 46.0787 25.2213 45.7921 25.2213 45.4387C25.2213 45.0852 25.5098 44.7987 25.8658 44.7987ZM14.2658 38.3987C14.6217 38.3987 14.9102 38.6852 14.9102 39.0387C14.9102 39.3669 14.6614 39.6374 14.3409 39.6743L14.2658 39.6787H5.24353C4.88762 39.6787 4.59909 39.3921 4.59909 39.0387C4.59909 38.7104 4.84787 38.4399 5.16838 38.403L5.24353 38.3987H14.2658ZM16.8435 34.5587C17.1994 34.5587 17.488 34.8452 17.488 35.1987C17.488 35.5269 17.2392 35.7974 16.9187 35.8343L16.8435 35.8387H5.24353C4.88762 35.8387 4.59909 35.5521 4.59909 35.1987C4.59909 34.8704 4.84787 34.5999 5.16838 34.563L5.24353 34.5587H16.8435ZM19.4213 30.7187C19.7772 30.7187 20.0658 31.0052 20.0658 31.3587C20.0658 31.6869 19.817 31.9574 19.4965 31.9943L19.4213 31.9987H5.24353C4.88762 31.9987 4.59909 31.7121 4.59909 31.3587C4.59909 31.0304 4.84787 30.7599 5.16838 30.723L5.24353 30.7187H19.4213ZM16.8435 26.8787C17.1994 26.8787 17.488 27.1652 17.488 27.5187C17.488 27.8469 17.2392 28.1174 16.9187 28.1543L16.8435 28.1587H5.24353C4.88762 28.1587 4.59909 27.8721 4.59909 27.5187C4.59909 27.1904 4.84787 26.9199 5.16838 26.883L5.24353 26.8787H16.8435ZM5.63851 18.0529L5.69922 18.1061L6.53242 18.9331L7.36562 18.1061L7.42633 18.0529C7.67914 17.8576 8.04469 17.8754 8.277 18.1061C8.50931 18.3368 8.52718 18.6998 8.33061 18.9509L8.277 19.0112L7.44431 19.8387L8.277 20.6661C8.52867 20.916 8.52867 21.3213 8.277 21.5712C8.04469 21.8019 7.67914 21.8197 7.42633 21.6244L7.36562 21.5712L6.53242 20.7443L5.69922 21.5712L5.63851 21.6244C5.3857 21.8197 5.02015 21.8019 4.78784 21.5712C4.55553 21.3405 4.53766 20.9775 4.73423 20.7264L4.78784 20.6661L5.62053 19.8387L4.78784 19.0112C4.53617 18.7613 4.53617 18.356 4.78784 18.1061C5.02015 17.8754 5.3857 17.8576 5.63851 18.0529ZM13.3718 18.0529L13.4326 18.1061L14.2658 18.9331L15.099 18.1061L15.1597 18.0529C15.4125 17.8576 15.778 17.8754 16.0103 18.1061C16.2426 18.3368 16.2605 18.6998 16.0639 18.9509L16.0103 19.0112L15.177 19.8387L16.0103 20.6661C16.262 20.916 16.262 21.3213 16.0103 21.5712C15.778 21.8019 15.4125 21.8197 15.1597 21.6244L15.099 21.5712L14.2658 20.7436L13.4326 21.5712L13.3718 21.6244C13.119 21.8197 12.7535 21.8019 12.5212 21.5712C12.2889 21.3405 12.271 20.9775 12.4676 20.7264L12.5212 20.6661L13.3539 19.8387L12.5212 19.0112C12.2695 18.7613 12.2695 18.356 12.5212 18.1061C12.7535 17.8754 13.119 17.8576 13.3718 18.0529ZM21.1052 18.0529L21.1659 18.1061L21.9991 18.9331L22.8323 18.1061L22.893 18.0529C23.1458 17.8576 23.5114 17.8754 23.7437 18.1061C23.976 18.3368 23.9938 18.6998 23.7973 18.9509L23.7437 19.0112L22.9103 19.8387L23.7437 20.6661C23.9953 20.916 23.9953 21.3213 23.7437 21.5712C23.5114 21.8019 23.1458 21.8197 22.893 21.6244L22.8323 21.5712L21.9991 20.7436L21.1659 21.5712L21.1052 21.6244C20.8524 21.8197 20.4868 21.8019 20.2545 21.5712C20.0222 21.3405 20.0043 20.9775 20.2009 20.7264L20.2545 20.6661L21.0872 19.8387L20.2545 19.0112C20.0028 18.7613 20.0028 18.356 20.2545 18.1061C20.4868 17.8754 20.8524 17.8576 21.1052 18.0529ZM10.3991 10.2387C10.755 10.2387 11.0435 10.5252 11.0435 10.8787C11.0435 11.2069 10.7948 11.4774 10.4742 11.5143L10.3991 11.5187H5.24353C4.88762 11.5187 4.59909 11.2321 4.59909 10.8787C4.59909 10.5504 4.84787 10.2799 5.16838 10.243L5.24353 10.2387H10.3991ZM19.4213 10.2387C19.7772 10.2387 20.0658 10.5252 20.0658 10.8787C20.0658 11.2069 19.817 11.4774 19.4965 11.5143L19.4213 11.5187H12.9769C12.6209 11.5187 12.3324 11.2321 12.3324 10.8787C12.3324 10.5504 12.5812 10.2799 12.9017 10.243L12.9769 10.2387H19.4213Z" fill="#000091"/>
</g>
</svg>
